<svg width="2777" height="1746" viewBox="0 0 2777 1746" fill="none" xmlns="http://www.w3.org/2000/svg">
<g opacity="0.54" filter="url(#filter0_f_272_597)">
<g opacity="0.6" filter="url(#filter1_f_272_597)">
<ellipse cx="578.5" cy="386" rx="578.5" ry="386" transform="matrix(1 0 0 -1 667.001 1334)" fill="#5E19F0"/>
</g>
<g opacity="0.6" filter="url(#filter2_f_272_597)">
<circle cx="386" cy="386" r="386" transform="matrix(1 0 0 -1 412 1184)" fill="#3719F0"/>
</g>
<g filter="url(#filter3_f_272_597)">
<path d="M1043.34 1005.91C854.706 1007.44 605.737 928.013 637.813 465.192C1163.75 434.134 2223.58 372.628 2255.35 375.072C2295.06 378.127 2599.78 786.723 2611.23 798.179C2622.69 809.635 2673.86 913.502 2345.46 1180.81C2017.07 1448.11 1739.84 1242.48 1547.39 1107.49C1354.94 972.5 1231.98 1004.39 1043.34 1005.91Z" fill="#11112E"/>
</g>
<mask id="mask0_272_597" style="mask-type:alpha" maskUnits="userSpaceOnUse" x="1469" y="587" width="854" height="740">
<ellipse cx="484.544" cy="289.781" rx="484.544" ry="289.781" transform="matrix(0.806079 0.591808 0.591808 -0.806079 1333.74 903.697)" fill="url(#paint0_radial_272_597)"/>
</mask>
<g mask="url(#mask0_272_597)">
<path d="M1471.49 697.76C1411.04 674.559 1397.76 650.793 1362 595.091L1943.84 378.928C2092.09 604.49 2349.05 1036.44 2247.02 1077.27C2140.25 1120 1977.49 1102.21 1877.67 1053.29C1777.85 1004.38 1697.4 841.079 1659.61 782.96C1624.6 729.115 1531.93 720.961 1471.49 697.76Z" fill="#1F37E1"/>
<g filter="url(#filter4_f_272_597)">
<path d="M1471.49 698.76C1411.04 675.559 1397.76 651.793 1362 596.091L1943.84 379.928C2092.09 605.49 2312.53 1103.17 2210.5 1144C2129.82 1176.29 1983.17 1098.68 1908 1054.08C1883.7 1039.66 1900.89 1023.32 1885.67 1022.29C1774.76 1014.81 1697.4 842.079 1659.61 783.96C1624.6 730.115 1531.93 721.961 1471.49 698.76Z" fill="#1F37E1"/>
</g>
<g filter="url(#filter5_f_272_597)">
<path d="M1455.49 705.76C1395.04 682.559 1381.76 658.793 1346 603.091L1943.84 378.928C2092.09 604.49 2221.05 1060.44 2119.02 1101.27C2023.31 1139.58 1967.89 1094.1 1890.5 1049.65C1881.56 1044.52 1896 1042.36 1885.67 1037.29C1785.85 988.381 1681.4 849.079 1643.61 790.96C1608.6 737.115 1515.93 728.961 1455.49 705.76Z" fill="#1F37E1"/>
</g>
<g filter="url(#filter6_f_272_597)">
<path d="M1439.49 713.76C1379.04 690.559 1365.76 666.793 1330 611.091L1943.84 378.928C2092.09 604.49 2373.05 1116.44 2271.02 1157.27C2184.9 1191.74 2032.55 1108.01 1938 1071.09C1915.33 1062.24 1901.97 1044.75 1882.67 1035.29C1782.85 986.38 1665.4 857.079 1627.61 798.96C1592.6 745.115 1499.93 736.961 1439.49 713.76Z" fill="#1F37E1"/>
</g>
<g filter="url(#filter7_f_272_597)">
<path d="M1388.49 735.61C1328.04 712.409 1314.76 688.643 1279 632.94L1908.84 384.778C2057.09 610.34 2186.05 1066.29 2084.02 1107.12C2004.88 1138.79 1944.71 1073.63 1907 1050.2C1893.83 1042.02 1931.6 1028 1903 1028C1792.5 1028 1813.39 911.691 1631.5 835.001C1572.32 810.047 1448.93 758.811 1388.49 735.61Z" fill="#1F37E1"/>
</g>
</g>
<g opacity="0.6" filter="url(#filter8_f_272_597)">
<circle cx="164.5" cy="164.5" r="164.5" transform="matrix(1 0 0 -1 1846 977)" fill="#19DBF0"/>
</g>
<g opacity="0.3" filter="url(#filter9_f_272_597)">
<ellipse cx="368.5" cy="164.5" rx="368.5" ry="164.5" transform="matrix(1 0 0 -1 928.001 973)" fill="black"/>
</g>
<g opacity="0.6" filter="url(#filter10_f_272_597)">
<ellipse cx="164.5" cy="48.7174" rx="164.5" ry="48.7174" transform="matrix(0.751905 0.659271 0.659271 -0.751905 1485 784.1)" fill="#28009B"/>
</g>
<mask id="mask1_272_597" style="mask-type:alpha" maskUnits="userSpaceOnUse" x="41" y="281" width="1472" height="975">
<path d="M254.682 281.314C199.72 598.505 45.0125 1075.71 41.0004 1091.29L1512.68 1255.15L1442.65 489.171L254.682 281.314Z" fill="url(#paint1_linear_272_597)"/>
</mask>
<g mask="url(#mask1_272_597)">
<path d="M694.064 1028.3C828.052 1051.74 954.092 994.938 966.095 926.34C978.097 857.742 939.61 758.229 795.853 733.076C724.614 720.612 646.141 659.621 555.526 678.973C463.284 698.672 466.505 795.659 460.451 830.263C448.448 898.861 560.077 1004.86 694.064 1028.3Z" fill="#1F37E1"/>
<g filter="url(#filter11_f_272_597)">
<path d="M693.487 1022.14C837.186 1047.29 951.535 999.509 961.851 940.544C972.168 881.58 931.491 794.713 787.793 769.57C716.583 757.111 637.287 701.033 547.546 715.594C456.194 730.415 461.706 814.262 456.501 844.007C446.184 902.972 549.789 997 693.487 1022.14Z" fill="#1F37E1"/>
</g>
<g filter="url(#filter12_f_272_597)">
<path d="M697.841 1022.9C858.898 1051.08 988.351 990.165 1001.07 917.469C1013.79 844.773 969.716 738.74 808.658 710.56C728.846 696.595 641.958 622.381 540.801 641.991C437.826 661.954 441.351 771.091 434.935 807.763C422.215 880.459 536.783 994.724 697.841 1022.9Z" fill="#1F37E1"/>
</g>
<g filter="url(#filter13_f_272_597)">
<path d="M717.935 1017.55C919.903 1034.51 1101.11 969.039 1116 883.958C1130.88 798.877 1046.05 689.24 852.895 655.444C757.176 638.696 650.353 524.437 529.218 546.908C405.907 569.783 411.927 690.429 404.417 733.349C389.531 818.43 483.966 997.899 717.935 1017.55Z" fill="#1F37E1"/>
</g>
<g filter="url(#filter14_f_272_597)">
<path d="M790.955 994.836C998.934 1031.23 1197.16 952.934 1211.72 869.75C1226.27 786.565 1133.33 677.624 925.355 641.234C822.291 623.201 702.707 569.56 573.01 589.559C440.984 609.918 449.476 728.331 442.134 770.293C427.579 853.478 582.975 958.446 790.955 994.836Z" fill="#1F37E1"/>
</g>
<g filter="url(#filter15_f_272_597)">
<path d="M877.713 975.795C1092.64 1013.4 1297.29 933.656 1312.17 848.575C1327.06 763.494 1230.85 651.867 1015.92 614.261C909.417 595.626 785.778 540.529 651.826 560.757C515.467 581.349 524.454 702.514 516.944 745.434C502.058 830.515 662.785 938.19 877.713 975.795Z" fill="#1F37E1"/>
</g>
<g filter="url(#filter16_f_272_597)">
<path d="M713.692 961.041C901.753 993.945 1083.27 910.154 1098.16 825.073C1113.04 739.992 1030.87 630.821 842.812 597.916C749.618 581.61 640.424 539.18 522.288 562.176C402.031 585.585 407.357 706.109 399.847 749.029C384.96 834.11 525.63 928.136 713.692 961.041Z" fill="#1F37E1"/>
</g>
</g>
</g>
<defs>
<filter id="filter0_f_272_597" x="248.766" y="225.001" width="2522.23" height="1259" filterUnits="userSpaceOnUse" color-interpolation-filters="sRGB">
<feFlood flood-opacity="0" result="BackgroundImageFix"/>
<feBlend mode="normal" in="SourceGraphic" in2="BackgroundImageFix" result="shape"/>
<feGaussianBlur stdDeviation="75" result="effect1_foregroundBlur_272_597"/>
</filter>
<filter id="filter1_f_272_597" x="255.001" y="150" width="1981" height="1596" filterUnits="userSpaceOnUse" color-interpolation-filters="sRGB">
<feFlood flood-opacity="0" result="BackgroundImageFix"/>
<feBlend mode="normal" in="SourceGraphic" in2="BackgroundImageFix" result="shape"/>
<feGaussianBlur stdDeviation="206" result="effect1_foregroundBlur_272_597"/>
</filter>
<filter id="filter2_f_272_597" x="0" y="0" width="1596" height="1596" filterUnits="userSpaceOnUse" color-interpolation-filters="sRGB">
<feFlood flood-opacity="0" result="BackgroundImageFix"/>
<feBlend mode="normal" in="SourceGraphic" in2="BackgroundImageFix" result="shape"/>
<feGaussianBlur stdDeviation="206" result="effect1_foregroundBlur_272_597"/>
</filter>
<filter id="filter3_f_272_597" x="479.001" y="219.001" width="2298" height="1248" filterUnits="userSpaceOnUse" color-interpolation-filters="sRGB">
<feFlood flood-opacity="0" result="BackgroundImageFix"/>
<feBlend mode="normal" in="SourceGraphic" in2="BackgroundImageFix" result="shape"/>
<feGaussianBlur stdDeviation="78" result="effect1_foregroundBlur_272_597"/>
</filter>
<filter id="filter4_f_272_597" x="1342" y="359.928" width="914.56" height="811.722" filterUnits="userSpaceOnUse" color-interpolation-filters="sRGB">
<feFlood flood-opacity="0" result="BackgroundImageFix"/>
<feBlend mode="normal" in="SourceGraphic" in2="BackgroundImageFix" result="shape"/>
<feGaussianBlur stdDeviation="10" result="effect1_foregroundBlur_272_597"/>
</filter>
<filter id="filter5_f_272_597" x="1318" y="350.928" width="865.541" height="792.725" filterUnits="userSpaceOnUse" color-interpolation-filters="sRGB">
<feFlood flood-opacity="0" result="BackgroundImageFix"/>
<feBlend mode="normal" in="SourceGraphic" in2="BackgroundImageFix" result="shape"/>
<feGaussianBlur stdDeviation="14" result="effect1_foregroundBlur_272_597"/>
</filter>
<filter id="filter6_f_272_597" x="1294" y="342.928" width="1034.83" height="858.493" filterUnits="userSpaceOnUse" color-interpolation-filters="sRGB">
<feFlood flood-opacity="0" result="BackgroundImageFix"/>
<feBlend mode="normal" in="SourceGraphic" in2="BackgroundImageFix" result="shape"/>
<feGaussianBlur stdDeviation="18" result="effect1_foregroundBlur_272_597"/>
</filter>
<filter id="filter7_f_272_597" x="1227" y="332.778" width="945.541" height="834.86" filterUnits="userSpaceOnUse" color-interpolation-filters="sRGB">
<feFlood flood-opacity="0" result="BackgroundImageFix"/>
<feBlend mode="normal" in="SourceGraphic" in2="BackgroundImageFix" result="shape"/>
<feGaussianBlur stdDeviation="26" result="effect1_foregroundBlur_272_597"/>
</filter>
<filter id="filter8_f_272_597" x="1634" y="436" width="753" height="753" filterUnits="userSpaceOnUse" color-interpolation-filters="sRGB">
<feFlood flood-opacity="0" result="BackgroundImageFix"/>
<feBlend mode="normal" in="SourceGraphic" in2="BackgroundImageFix" result="shape"/>
<feGaussianBlur stdDeviation="106" result="effect1_foregroundBlur_272_597"/>
</filter>
<filter id="filter9_f_272_597" x="716.001" y="432" width="1161" height="753" filterUnits="userSpaceOnUse" color-interpolation-filters="sRGB">
<feFlood flood-opacity="0" result="BackgroundImageFix"/>
<feBlend mode="normal" in="SourceGraphic" in2="BackgroundImageFix" result="shape"/>
<feGaussianBlur stdDeviation="106" result="effect1_foregroundBlur_272_597"/>
</filter>
<filter id="filter10_f_272_597" x="1300.98" y="529.419" width="679.643" height="653.001" filterUnits="userSpaceOnUse" color-interpolation-filters="sRGB">
<feFlood flood-opacity="0" result="BackgroundImageFix"/>
<feBlend mode="normal" in="SourceGraphic" in2="BackgroundImageFix" result="shape"/>
<feGaussianBlur stdDeviation="106" result="effect1_foregroundBlur_272_597"/>
</filter>
<filter id="filter11_f_272_597" x="448.253" y="705.659" width="522.653" height="330.883" filterUnits="userSpaceOnUse" color-interpolation-filters="sRGB">
<feFlood flood-opacity="0" result="BackgroundImageFix"/>
<feBlend mode="normal" in="SourceGraphic" in2="BackgroundImageFix" result="shape"/>
<feGaussianBlur stdDeviation="3.76999" result="effect1_foregroundBlur_272_597"/>
</filter>
<filter id="filter12_f_272_597" x="407.581" y="612.324" width="621.938" height="443.996" filterUnits="userSpaceOnUse" color-interpolation-filters="sRGB">
<feFlood flood-opacity="0" result="BackgroundImageFix"/>
<feBlend mode="normal" in="SourceGraphic" in2="BackgroundImageFix" result="shape"/>
<feGaussianBlur stdDeviation="13.195" result="effect1_foregroundBlur_272_597"/>
</filter>
<filter id="filter13_f_272_597" x="365.207" y="506.293" width="790.154" height="551.643" filterUnits="userSpaceOnUse" color-interpolation-filters="sRGB">
<feFlood flood-opacity="0" result="BackgroundImageFix"/>
<feBlend mode="normal" in="SourceGraphic" in2="BackgroundImageFix" result="shape"/>
<feGaussianBlur stdDeviation="18.8499" result="effect1_foregroundBlur_272_597"/>
</filter>
<filter id="filter14_f_272_597" x="339.4" y="483.37" width="975.582" height="622.414" filterUnits="userSpaceOnUse" color-interpolation-filters="sRGB">
<feFlood flood-opacity="0" result="BackgroundImageFix"/>
<feBlend mode="normal" in="SourceGraphic" in2="BackgroundImageFix" result="shape"/>
<feGaussianBlur stdDeviation="50.8948" result="effect1_foregroundBlur_272_597"/>
</filter>
<filter id="filter15_f_272_597" x="263.399" y="303.773" width="1302.86" height="934.174" filterUnits="userSpaceOnUse" color-interpolation-filters="sRGB">
<feFlood flood-opacity="0" result="BackgroundImageFix"/>
<feBlend mode="normal" in="SourceGraphic" in2="BackgroundImageFix" result="shape"/>
<feGaussianBlur stdDeviation="126.295" result="effect1_foregroundBlur_272_597"/>
</filter>
<filter id="filter16_f_272_597" x="281.897" y="438.624" width="934.839" height="646.608" filterUnits="userSpaceOnUse" color-interpolation-filters="sRGB">
<feFlood flood-opacity="0" result="BackgroundImageFix"/>
<feBlend mode="normal" in="SourceGraphic" in2="BackgroundImageFix" result="shape"/>
<feGaussianBlur stdDeviation="58.4348" result="effect1_foregroundBlur_272_597"/>
</filter>
<radialGradient id="paint0_radial_272_597" cx="0" cy="0" r="1" gradientTransform="matrix(-83.0416 336.183 -562.032 -48.5614 567.585 243.378)" gradientUnits="userSpaceOnUse">
<stop offset="0.120131" stop-color="#C4C4C4"/>
<stop offset="0.692585" stop-color="#C4C4C4" stop-opacity="0"/>
</radialGradient>
<linearGradient id="paint1_linear_272_597" x1="642.794" y1="988.81" x2="750.536" y2="469.347" gradientUnits="userSpaceOnUse">
<stop stop-color="#C4C4C4"/>
<stop offset="1" stop-color="#C4C4C4" stop-opacity="0"/>
</linearGradient>
</defs>
</svg>
