<svg width="1085" height="1104" viewBox="0 0 1085 1104" fill="none" xmlns="http://www.w3.org/2000/svg">
<g opacity="0.28" filter="url(#filter0_fn_181_547)">
<mask id="mask0_181_547" style="mask-type:alpha" maskUnits="userSpaceOnUse" x="424" y="287" width="455" height="403">
<rect x="790.926" y="287.678" width="304.709" height="383.127" transform="rotate(73.2361 790.926 287.678)" fill="url(#paint0_linear_181_547)"/>
</mask>
<g mask="url(#mask0_181_547)">
<path d="M631.34 611.077C571.901 628.982 509.203 595.312 491.298 535.874C473.394 476.436 507.063 413.738 566.501 395.833C625.939 377.929 608.547 435.724 626.452 495.162C644.356 554.6 690.778 593.173 631.34 611.077Z" fill="#0075FF"/>
<g filter="url(#filter1_f_181_547)">
<path d="M629.193 611.729C583.183 625.588 531.37 588.64 513.465 529.202C495.561 469.764 518.345 410.344 564.355 396.484C610.365 382.625 662.178 419.573 680.083 479.011C697.988 538.449 675.203 597.869 629.193 611.729Z" fill="#0075FF"/>
</g>
<g filter="url(#filter2_f_181_547)">
<ellipse cx="601.063" cy="502.813" rx="112.399" ry="87.0065" transform="rotate(73.2361 601.063 502.813)" fill="#0075FF"/>
</g>
<g filter="url(#filter3_f_181_547)">
<ellipse cx="612.866" cy="499.257" rx="112.399" ry="87.3799" transform="rotate(73.2361 612.866 499.257)" fill="#0075FF"/>
</g>
<g filter="url(#filter4_f_181_547)">
<ellipse cx="648.26" cy="488.595" rx="112.399" ry="87.0065" transform="rotate(73.2361 648.26 488.595)" fill="#0075FF"/>
</g>
<g filter="url(#filter5_f_181_547)">
<ellipse cx="696.171" cy="474.163" rx="94.4748" ry="87.0065" transform="rotate(73.2361 696.171 474.163)" fill="#0075FF"/>
</g>
</g>
<mask id="mask1_181_547" style="mask-type:alpha" maskUnits="userSpaceOnUse" x="183" y="212" width="442" height="536">
<path d="M183.779 747.878L297.997 212.588L624.858 420.173L621.926 696.093L183.779 747.878Z" fill="url(#paint1_linear_181_547)"/>
</mask>
<g mask="url(#mask1_181_547)">
<path d="M485.941 436.891C548.687 446.165 599.069 499.252 598.472 555.463C597.875 611.674 546.524 649.724 483.778 640.45C421.032 631.175 455.199 590.586 455.796 534.374C456.393 478.163 423.195 427.616 485.941 436.891Z" fill="#00E1B8"/>
<g filter="url(#filter6_f_181_547)">
<path d="M488.208 437.228C536.779 444.408 575.67 495.796 575.072 552.007C574.475 608.218 534.616 647.967 486.045 640.787C437.474 633.608 398.583 582.22 399.181 526.009C399.778 469.797 439.637 430.049 488.208 437.228Z" fill="#00E1B8"/>
</g>
<g filter="url(#filter7_f_181_547)">
<ellipse cx="101.785" cy="88.9014" rx="101.785" ry="88.9014" transform="matrix(0.0106249 -0.999944 0.989252 0.14622 393.57 627.116)" fill="#00E1B8"/>
</g>
<g filter="url(#filter8_f_181_547)">
<ellipse cx="101.785" cy="89.2829" rx="101.785" ry="89.2829" transform="matrix(0.0106249 -0.999944 0.989252 0.14622 380.732 625.222)" fill="#00E1B8"/>
</g>
<g filter="url(#filter9_f_181_547)">
<ellipse cx="101.785" cy="88.9014" rx="101.785" ry="88.9014" transform="matrix(0.0106249 -0.999944 0.989252 0.14622 343.744 619.753)" fill="#00E1B8"/>
</g>
<g filter="url(#filter10_f_181_547)">
<ellipse cx="85.5537" cy="88.9014" rx="85.5537" ry="88.9014" transform="matrix(0.0106249 -0.999944 0.989252 0.14622 293.34 596.046)" fill="#00E1B8"/>
</g>
</g>
<mask id="mask2_181_547" style="mask-type:alpha" maskUnits="userSpaceOnUse" x="157" y="193" width="587" height="489">
<path d="M157.759 355.269L547.173 193.495L743.984 520.152L354.571 681.926L157.759 355.269Z" fill="url(#paint2_linear_181_547)"/>
</mask>
<g mask="url(#mask2_181_547)">
<path d="M593.881 449.177C625.769 502.103 607.81 562.1 553.767 583.183C499.724 604.266 430.064 578.452 398.175 525.525C366.287 472.598 427.215 483.919 481.258 462.836C535.3 441.753 561.992 396.25 593.881 449.177Z" fill="#00E1B8"/>
<g filter="url(#filter11_f_181_547)">
<path d="M595.033 451.087C619.717 492.057 595.918 542.361 541.875 563.444C487.833 584.527 424.012 568.405 399.327 527.435C374.643 486.466 398.443 436.162 452.485 415.079C506.528 393.996 570.349 410.117 595.033 451.087Z" fill="#00E1B8"/>
</g>
<g filter="url(#filter12_f_181_547)">
<ellipse cx="105.035" cy="86.6064" rx="105.035" ry="86.6064" transform="matrix(0.931617 -0.36344 0.51607 0.856546 352.328 449.433)" fill="#00E1B8"/>
</g>
<g filter="url(#filter13_f_181_547)">
<ellipse cx="105.035" cy="86.9781" rx="105.035" ry="86.9781" transform="matrix(0.931617 -0.36344 0.51607 0.856546 345.81 438.612)" fill="#00E1B8"/>
</g>
<g filter="url(#filter14_f_181_547)">
<ellipse cx="105.035" cy="86.6064" rx="105.035" ry="86.6064" transform="matrix(0.931617 -0.36344 0.51607 0.856546 327.007 407.405)" fill="#00E1B8"/>
</g>
<g filter="url(#filter15_f_181_547)">
<ellipse cx="88.2855" cy="86.6064" rx="88.2855" ry="86.6064" transform="matrix(0.931617 -0.36344 0.51607 0.856546 316.908 358.651)" fill="#00E1B8"/>
</g>
</g>
<path d="M540.302 453.844C578.577 456.654 611.727 487.055 614.521 521.581C617.314 556.106 588.716 581.976 550.44 579.166C512.164 576.356 479.015 545.953 476.222 511.428C473.429 476.903 502.026 451.034 540.302 453.844Z" stroke="#BAFF84" stroke-opacity="0.21" stroke-width="1.84515"/>
<path d="M536.383 405.4C604.144 410.374 662.95 464.219 667.907 525.499C672.865 586.778 622.12 632.581 554.36 627.607C486.6 622.633 427.794 568.787 422.836 507.508C417.879 446.229 468.623 400.425 536.383 405.4Z" stroke="#BAFF84" stroke-opacity="0.21" stroke-width="1.84515"/>
<path opacity="0.4" d="M531.812 348.882C633.97 356.381 722.708 437.576 730.191 530.069C737.674 622.561 661.091 691.621 558.933 684.122C456.774 676.622 368.036 595.426 360.553 502.934C353.071 410.442 429.653 341.383 531.812 348.882Z" stroke="#BAFF84" stroke-opacity="0.21" stroke-width="1.84515"/>
<path opacity="0.2" d="M527.523 295.899C661.93 305.765 778.73 412.601 788.58 534.356C798.43 656.111 697.624 746.973 563.216 737.107C428.809 727.24 312.01 620.403 302.16 498.649C292.31 376.894 393.116 286.032 527.523 295.899Z" stroke="#BAFF84" stroke-opacity="0.21" stroke-width="1.84515"/>
<mask id="mask3_181_547" style="mask-type:alpha" maskUnits="userSpaceOnUse" x="388" y="378" width="450" height="395">
<rect x="758.976" y="378.712" width="304.709" height="383.127" transform="rotate(75 758.976 378.712)" fill="url(#paint3_linear_181_547)"/>
</mask>
<g mask="url(#mask3_181_547)">
<path d="M589.512 697.053C529.551 713.12 467.919 677.536 451.852 617.575C435.786 557.614 471.369 495.981 531.33 479.915C591.291 463.848 572.128 521.081 588.195 581.042C604.261 641.003 649.473 680.987 589.512 697.053Z" fill="#00FF38"/>
<g filter="url(#filter16_f_181_547)">
<path d="M587.345 697.631C540.93 710.068 490.279 671.542 474.212 611.581C458.146 551.62 482.748 492.93 529.163 480.493C575.578 468.056 626.229 506.582 642.296 566.543C658.362 626.504 633.76 685.194 587.345 697.631Z" fill="#00FF38"/>
</g>
<g filter="url(#filter17_f_181_547)">
<ellipse cx="562.584" cy="587.902" rx="112.399" ry="87.0065" transform="rotate(75 562.584 587.902)" fill="#00FF38"/>
</g>
<g filter="url(#filter18_f_181_547)">
<ellipse cx="574.487" cy="584.713" rx="112.399" ry="87.3799" transform="rotate(75 574.487 584.713)" fill="#00FF38"/>
</g>
<g filter="url(#filter19_f_181_547)">
<ellipse cx="610.197" cy="575.144" rx="112.399" ry="87.0065" transform="rotate(75 610.197 575.144)" fill="#00FF38"/>
</g>
<g filter="url(#filter20_f_181_547)">
<ellipse cx="658.531" cy="562.194" rx="94.4748" ry="87.0065" transform="rotate(75 658.531 562.194)" fill="#00FF38"/>
</g>
</g>
<mask id="mask4_181_547" style="mask-type:alpha" maskUnits="userSpaceOnUse" x="360" y="443" width="488" height="486">
<rect x="847.566" y="709.335" width="304.709" height="383.127" transform="rotate(133.911 847.566 709.335)" fill="url(#paint4_linear_181_547)"/>
</mask>
<g mask="url(#mask4_181_547)">
<path d="M487.441 728.59C442.72 685.538 441.368 614.384 484.421 569.663C527.474 524.943 598.628 523.591 643.348 566.643C688.069 609.696 629.161 622.838 586.109 667.559C543.056 712.279 532.161 771.643 487.441 728.59Z" fill="#0C3B33"/>
<g filter="url(#filter21_f_181_547)">
<path d="M485.827 727.041C451.21 693.714 458.048 630.445 501.101 585.724C544.153 541.004 607.118 531.767 641.735 565.094C676.353 598.42 669.515 661.69 626.462 706.41C583.409 751.131 520.445 760.367 485.827 727.041Z" fill="#0C3B33"/>
</g>
<g filter="url(#filter22_f_181_547)">
<ellipse cx="567.012" cy="649.173" rx="112.399" ry="87.0065" transform="rotate(133.911 567.012 649.173)" fill="#0C3B33"/>
</g>
<g filter="url(#filter23_f_181_547)">
<ellipse cx="575.887" cy="657.718" rx="112.399" ry="87.3799" transform="rotate(133.911 575.887 657.718)" fill="#0C3B33"/>
</g>
<g filter="url(#filter24_f_181_547)">
<ellipse cx="602.52" cy="683.36" rx="112.399" ry="87.0065" transform="rotate(133.911 602.52 683.36)" fill="#0C3B33"/>
</g>
<g filter="url(#filter25_f_181_547)">
<ellipse cx="638.568" cy="718.065" rx="94.4748" ry="87.0065" transform="rotate(133.911 638.568 718.065)" fill="#0C3B33"/>
</g>
</g>
</g>
<defs>
<filter id="filter0_fn_181_547" x="-8.21085" y="-70.608" width="1092.62" height="1367.62" filterUnits="userSpaceOnUse" color-interpolation-filters="sRGB">
<feFlood flood-opacity="0" result="BackgroundImageFix"/>
<feBlend mode="normal" in="SourceGraphic" in2="BackgroundImageFix" result="shape"/>
<feGaussianBlur stdDeviation="147.122" result="effect1_foregroundBlur_181_547"/>
<feTurbulence type="fractalNoise" baseFrequency="1.1464434862136841 1.1464434862136841" stitchTiles="stitch" numOctaves="3" result="noise" seed="6783" />
<feColorMatrix in="noise" type="luminanceToAlpha" result="alphaNoise" />
<feComponentTransfer in="alphaNoise" result="coloredNoise1">
<feFuncA type="discrete" tableValues="1 1 1 1 1 1 1 1 1 1 1 1 1 1 1 1 1 1 1 1 1 1 1 1 1 1 1 1 1 1 1 1 1 1 1 1 1 1 1 1 1 1 1 1 1 1 1 1 1 1 1 0 0 0 0 0 0 0 0 0 0 0 0 0 0 0 0 0 0 0 0 0 0 0 0 0 0 0 0 0 0 0 0 0 0 0 0 0 0 0 0 0 0 0 0 0 0 0 0 0 "/>
</feComponentTransfer>
<feComposite operator="in" in2="effect1_foregroundBlur_181_547" in="coloredNoise1" result="noise1Clipped" />
<feFlood flood-color="rgba(0, 0, 0, 0.25)" result="color1Flood" />
<feComposite operator="in" in2="noise1Clipped" in="color1Flood" result="color1" />
<feMerge result="effect2_noise_181_547">
<feMergeNode in="effect1_foregroundBlur_181_547" />
<feMergeNode in="color1" />
</feMerge>
</filter>
<filter id="filter1_f_181_547" x="504.896" y="391.112" width="183.757" height="225.989" filterUnits="userSpaceOnUse" color-interpolation-filters="sRGB">
<feFlood flood-opacity="0" result="BackgroundImageFix"/>
<feBlend mode="normal" in="SourceGraphic" in2="BackgroundImageFix" result="shape"/>
<feGaussianBlur stdDeviation="1.2301" result="effect1_foregroundBlur_181_547"/>
</filter>
<filter id="filter2_f_181_547" x="503.034" y="383.669" width="196.058" height="238.29" filterUnits="userSpaceOnUse" color-interpolation-filters="sRGB">
<feFlood flood-opacity="0" result="BackgroundImageFix"/>
<feBlend mode="normal" in="SourceGraphic" in2="BackgroundImageFix" result="shape"/>
<feGaussianBlur stdDeviation="4.30535" result="effect1_foregroundBlur_181_547"/>
</filter>
<filter id="filter3_f_181_547" x="502.202" y="367.787" width="221.327" height="262.94" filterUnits="userSpaceOnUse" color-interpolation-filters="sRGB">
<feFlood flood-opacity="0" result="BackgroundImageFix"/>
<feBlend mode="normal" in="SourceGraphic" in2="BackgroundImageFix" result="shape"/>
<feGaussianBlur stdDeviation="10.4558" result="effect1_foregroundBlur_181_547"/>
</filter>
<filter id="filter4_f_181_547" x="513.328" y="332.547" width="269.864" height="312.096" filterUnits="userSpaceOnUse" color-interpolation-filters="sRGB">
<feFlood flood-opacity="0" result="BackgroundImageFix"/>
<feBlend mode="normal" in="SourceGraphic" in2="BackgroundImageFix" result="shape"/>
<feGaussianBlur stdDeviation="22.7568" result="effect1_foregroundBlur_181_547"/>
</filter>
<filter id="filter5_f_181_547" x="528.539" y="300.306" width="335.264" height="347.713" filterUnits="userSpaceOnUse" color-interpolation-filters="sRGB">
<feFlood flood-opacity="0" result="BackgroundImageFix"/>
<feBlend mode="normal" in="SourceGraphic" in2="BackgroundImageFix" result="shape"/>
<feGaussianBlur stdDeviation="39.9782" result="effect1_foregroundBlur_181_547"/>
</filter>
<filter id="filter6_f_181_547" x="395.104" y="432.32" width="184.045" height="213.375" filterUnits="userSpaceOnUse" color-interpolation-filters="sRGB">
<feFlood flood-opacity="0" result="BackgroundImageFix"/>
<feBlend mode="normal" in="SourceGraphic" in2="BackgroundImageFix" result="shape"/>
<feGaussianBlur stdDeviation="2.03493" result="effect1_foregroundBlur_181_547"/>
</filter>
<filter id="filter7_f_181_547" x="380.4" y="421.474" width="204.394" height="233.724" filterUnits="userSpaceOnUse" color-interpolation-filters="sRGB">
<feFlood flood-opacity="0" result="BackgroundImageFix"/>
<feBlend mode="normal" in="SourceGraphic" in2="BackgroundImageFix" result="shape"/>
<feGaussianBlur stdDeviation="7.12226" result="effect1_foregroundBlur_181_547"/>
</filter>
<filter id="filter8_f_181_547" x="347.213" y="399.279" width="245.848" height="274.437" filterUnits="userSpaceOnUse" color-interpolation-filters="sRGB">
<feFlood flood-opacity="0" result="BackgroundImageFix"/>
<feBlend mode="normal" in="SourceGraphic" in2="BackgroundImageFix" result="shape"/>
<feGaussianBlur stdDeviation="17.2969" result="effect1_foregroundBlur_181_547"/>
</filter>
<filter id="filter9_f_181_547" x="269.526" y="353.062" width="326.49" height="355.82" filterUnits="userSpaceOnUse" color-interpolation-filters="sRGB">
<feFlood flood-opacity="0" result="BackgroundImageFix"/>
<feBlend mode="normal" in="SourceGraphic" in2="BackgroundImageFix" result="shape"/>
<feGaussianBlur stdDeviation="37.6462" result="effect1_foregroundBlur_181_547"/>
</filter>
<filter id="filter10_f_181_547" x="161.973" y="304.683" width="440.442" height="437.627" filterUnits="userSpaceOnUse" color-interpolation-filters="sRGB">
<feFlood flood-opacity="0" result="BackgroundImageFix"/>
<feBlend mode="normal" in="SourceGraphic" in2="BackgroundImageFix" result="shape"/>
<feGaussianBlur stdDeviation="66.1353" result="effect1_foregroundBlur_181_547"/>
</filter>
<filter id="filter11_f_181_547" x="385.507" y="401.746" width="223.346" height="175.031" filterUnits="userSpaceOnUse" color-interpolation-filters="sRGB">
<feFlood flood-opacity="0" result="BackgroundImageFix"/>
<feBlend mode="normal" in="SourceGraphic" in2="BackgroundImageFix" result="shape"/>
<feGaussianBlur stdDeviation="2.03493" result="effect1_foregroundBlur_181_547"/>
</filter>
<filter id="filter12_f_181_547" x="373.028" y="387.751" width="243.695" height="195.381" filterUnits="userSpaceOnUse" color-interpolation-filters="sRGB">
<feFlood flood-opacity="0" result="BackgroundImageFix"/>
<feBlend mode="normal" in="SourceGraphic" in2="BackgroundImageFix" result="shape"/>
<feGaussianBlur stdDeviation="7.12226" result="effect1_foregroundBlur_181_547"/>
</filter>
<filter id="filter13_f_181_547" x="346.273" y="356.616" width="284.554" height="236.646" filterUnits="userSpaceOnUse" color-interpolation-filters="sRGB">
<feFlood flood-opacity="0" result="BackgroundImageFix"/>
<feBlend mode="normal" in="SourceGraphic" in2="BackgroundImageFix" result="shape"/>
<feGaussianBlur stdDeviation="17.2969" result="effect1_foregroundBlur_181_547"/>
</filter>
<filter id="filter14_f_181_547" x="286.66" y="284.675" width="365.791" height="317.477" filterUnits="userSpaceOnUse" color-interpolation-filters="sRGB">
<feFlood flood-opacity="0" result="BackgroundImageFix"/>
<feBlend mode="normal" in="SourceGraphic" in2="BackgroundImageFix" result="shape"/>
<feGaussianBlur stdDeviation="37.6462" result="effect1_foregroundBlur_181_547"/>
</filter>
<filter id="filter15_f_181_547" x="217.955" y="187.632" width="451.793" height="426.231" filterUnits="userSpaceOnUse" color-interpolation-filters="sRGB">
<feFlood flood-opacity="0" result="BackgroundImageFix"/>
<feBlend mode="normal" in="SourceGraphic" in2="BackgroundImageFix" result="shape"/>
<feGaussianBlur stdDeviation="66.1353" result="effect1_foregroundBlur_181_547"/>
</filter>
<filter id="filter16_f_181_547" x="466.835" y="475.7" width="182.837" height="226.725" filterUnits="userSpaceOnUse" color-interpolation-filters="sRGB">
<feFlood flood-opacity="0" result="BackgroundImageFix"/>
<feBlend mode="normal" in="SourceGraphic" in2="BackgroundImageFix" result="shape"/>
<feGaussianBlur stdDeviation="1.2301" result="effect1_foregroundBlur_181_547"/>
</filter>
<filter id="filter17_f_181_547" x="465.015" y="468.389" width="195.138" height="239.026" filterUnits="userSpaceOnUse" color-interpolation-filters="sRGB">
<feFlood flood-opacity="0" result="BackgroundImageFix"/>
<feBlend mode="normal" in="SourceGraphic" in2="BackgroundImageFix" result="shape"/>
<feGaussianBlur stdDeviation="4.30535" result="effect1_foregroundBlur_181_547"/>
</filter>
<filter id="filter18_f_181_547" x="464.276" y="452.88" width="220.422" height="263.667" filterUnits="userSpaceOnUse" color-interpolation-filters="sRGB">
<feFlood flood-opacity="0" result="BackgroundImageFix"/>
<feBlend mode="normal" in="SourceGraphic" in2="BackgroundImageFix" result="shape"/>
<feGaussianBlur stdDeviation="10.4558" result="effect1_foregroundBlur_181_547"/>
</filter>
<filter id="filter19_f_181_547" x="475.725" y="418.729" width="268.944" height="312.832" filterUnits="userSpaceOnUse" color-interpolation-filters="sRGB">
<feFlood flood-opacity="0" result="BackgroundImageFix"/>
<feBlend mode="normal" in="SourceGraphic" in2="BackgroundImageFix" result="shape"/>
<feGaussianBlur stdDeviation="22.7568" result="effect1_foregroundBlur_181_547"/>
</filter>
<filter id="filter20_f_181_547" x="491.025" y="388.222" width="335.012" height="347.943" filterUnits="userSpaceOnUse" color-interpolation-filters="sRGB">
<feFlood flood-opacity="0" result="BackgroundImageFix"/>
<feBlend mode="normal" in="SourceGraphic" in2="BackgroundImageFix" result="shape"/>
<feGaussianBlur stdDeviation="39.9782" result="effect1_foregroundBlur_181_547"/>
</filter>
<filter id="filter21_f_181_547" x="461.289" y="542.615" width="204.984" height="206.903" filterUnits="userSpaceOnUse" color-interpolation-filters="sRGB">
<feFlood flood-opacity="0" result="BackgroundImageFix"/>
<feBlend mode="normal" in="SourceGraphic" in2="BackgroundImageFix" result="shape"/>
<feGaussianBlur stdDeviation="1.2301" result="effect1_foregroundBlur_181_547"/>
</filter>
<filter id="filter22_f_181_547" x="458.369" y="539.57" width="217.285" height="219.204" filterUnits="userSpaceOnUse" color-interpolation-filters="sRGB">
<feFlood flood-opacity="0" result="BackgroundImageFix"/>
<feBlend mode="normal" in="SourceGraphic" in2="BackgroundImageFix" result="shape"/>
<feGaussianBlur stdDeviation="4.30535" result="effect1_foregroundBlur_181_547"/>
</filter>
<filter id="filter23_f_181_547" x="454.775" y="535.661" width="242.224" height="244.115" filterUnits="userSpaceOnUse" color-interpolation-filters="sRGB">
<feFlood flood-opacity="0" result="BackgroundImageFix"/>
<feBlend mode="normal" in="SourceGraphic" in2="BackgroundImageFix" result="shape"/>
<feGaussianBlur stdDeviation="10.4558" result="effect1_foregroundBlur_181_547"/>
</filter>
<filter id="filter24_f_181_547" x="456.974" y="536.855" width="291.091" height="293.01" filterUnits="userSpaceOnUse" color-interpolation-filters="sRGB">
<feFlood flood-opacity="0" result="BackgroundImageFix"/>
<feBlend mode="normal" in="SourceGraphic" in2="BackgroundImageFix" result="shape"/>
<feGaussianBlur stdDeviation="22.7568" result="effect1_foregroundBlur_181_547"/>
</filter>
<filter id="filter25_f_181_547" x="467.936" y="547.148" width="341.264" height="341.833" filterUnits="userSpaceOnUse" color-interpolation-filters="sRGB">
<feFlood flood-opacity="0" result="BackgroundImageFix"/>
<feBlend mode="normal" in="SourceGraphic" in2="BackgroundImageFix" result="shape"/>
<feGaussianBlur stdDeviation="39.9782" result="effect1_foregroundBlur_181_547"/>
</filter>
<linearGradient id="paint0_linear_181_547" x1="1014.6" y1="592.761" x2="1014.6" y2="287.678" gradientUnits="userSpaceOnUse">
<stop stop-color="white"/>
<stop offset="1" stop-color="white" stop-opacity="0"/>
</linearGradient>
<linearGradient id="paint1_linear_181_547" x1="545.191" y1="481.888" x2="236.365" y2="478.607" gradientUnits="userSpaceOnUse">
<stop stop-color="white"/>
<stop offset="1" stop-color="white" stop-opacity="0"/>
</linearGradient>
<linearGradient id="paint2_linear_181_547" x1="589.405" y1="513.05" x2="480.632" y2="234.229" gradientUnits="userSpaceOnUse">
<stop stop-color="white"/>
<stop offset="1" stop-color="white" stop-opacity="0"/>
</linearGradient>
<linearGradient id="paint3_linear_181_547" x1="982.654" y1="683.795" x2="982.654" y2="378.712" gradientUnits="userSpaceOnUse">
<stop stop-color="white"/>
<stop offset="1" stop-color="white" stop-opacity="0"/>
</linearGradient>
<linearGradient id="paint4_linear_181_547" x1="1071.24" y1="1014.42" x2="1071.24" y2="709.335" gradientUnits="userSpaceOnUse">
<stop stop-color="white"/>
<stop offset="1" stop-color="white" stop-opacity="0"/>
</linearGradient>
</defs>
</svg>
