<svg width="328" height="197" viewBox="0 0 328 197" fill="none" xmlns="http://www.w3.org/2000/svg">
<mask id="path-1-inside-1_233_69" fill="white">
<path d="M56 0V56H0V0H56ZM117 0V5H212V10H328V197H54V186H18V175H0V63H63V0H117Z"/>
</mask>
<path d="M56 0H57V-1H56V0ZM56 56V57H57V56H56ZM0 56H-1V57H0V56ZM0 0V-1H-1V0H0ZM117 0H118V-1H117V0ZM117 5H116V6H117V5ZM212 5H213V4H212V5ZM212 10H211V11H212V10ZM328 10H329V9H328V10ZM328 197V198H329V197H328ZM54 197H53V198H54V197ZM54 186H55V185H54V186ZM18 186H17V187H18V186ZM18 175H19V174H18V175ZM0 175H-1V176H0V175ZM0 63V62H-1V63H0ZM63 63V64H64V63H63ZM63 0V-1H62V0H63ZM56 0H55V56H56H57V0H56ZM56 56V55H0V56V57H56V56ZM0 56H1V0H0H-1V56H0ZM0 0V1H56V0V-1H0V0ZM117 0H116V5H117H118V0H117ZM117 5V6H212V5V4H117V5ZM212 5H211V10H212H213V5H212ZM212 10V11H328V10V9H212V10ZM328 10H327V197H328H329V10H328ZM328 197V196H54V197V198H328V197ZM54 197H55V186H54H53V197H54ZM54 186V185H18V186V187H54V186ZM18 186H19V175H18H17V186H18ZM18 175V174H0V175V176H18V175ZM0 175H1V63H0H-1V175H0ZM0 63V64H63V63V62H0V63ZM63 63H64V0H63H62V63H63ZM63 0V1H117V0V-1H63V0Z" fill="#2F2F2F" mask="url(#path-1-inside-1_233_69)"/>
</svg>
