<svg width="26" height="26" viewBox="0 0 26 26" fill="none" xmlns="http://www.w3.org/2000/svg">
<path d="M6.56609 3.28277H3.28309V6.56578H6.56609V3.28277Z" fill="#1F37E1"/>
<path d="M3.283 0H0V3.283L3.28309 3.28277L3.283 0Z" fill="#1F37E1"/>
<path d="M12.3964 6.56619H10.453V10.4531H12.3964V6.56619Z" fill="#1F37E1"/>
<path d="M10.4531 12.3961L10.453 10.4531L6.56619 10.4531V12.3961H10.4531Z" fill="#1F37E1"/>
<path d="M24.0573 13.3684V12.3964H22.1138V16.2834H24.0573V15.3118H26.0007V13.3684H24.0573Z" fill="#1F37E1"/>
<path d="M6.56619 12.3961L4.62279 12.3964V13.3684H2.67933V15.3118H4.62279V16.2834H6.56588L6.56619 12.3961Z" fill="#1F37E1"/>
<path d="M16.2834 6.56625V4.62279H15.3118V2.67933H13.3684V4.62279H12.3964L12.3964 6.56619L16.2834 6.56625Z" fill="#1F37E1"/>
<path d="M16.2832 10.4531H18.2267V6.56619L16.2834 6.56625L16.2832 10.4531Z" fill="#1F37E1"/>
<path d="M22.1138 12.3964L22.1135 10.4531L18.2267 10.4531L18.2266 12.3961L22.1138 12.3964Z" fill="#1F37E1"/>
<path d="M12.3964 22.1135V24.0569H13.3684V26.0004H15.3118V24.0569H16.2834V22.1135H12.3964Z" fill="#1F37E1"/>
<path d="M12.3964 18.2267H10.453V22.1136L12.3964 22.1135L12.3964 18.2267Z" fill="#1F37E1"/>
<path d="M6.56588 16.2834L6.56619 18.2267L10.453 18.2267L10.4531 16.2832L6.56588 16.2834Z" fill="#1F37E1"/>
<path d="M16.2834 22.1135L18.2267 22.1136V18.2267H16.2832L16.2834 22.1135Z" fill="#1F37E1"/>
<path d="M18.2266 16.2832L18.2267 18.2267L22.1135 18.2267L22.1138 16.2834L18.2266 16.2832Z" fill="#1F37E1"/>
</svg>
