<svg width="32" height="38" viewBox="0 0 32 38" fill="none" xmlns="http://www.w3.org/2000/svg">
<mask id="path-1-inside-1_251_318" fill="white">
<path d="M17.4814 18.4726H15.7226V20.2314H17.4814V18.4726Z"/>
<path d="M19.2398 20.231L17.4814 20.2314L17.481 21.9898H19.2398V20.231Z"/>
<path d="M20.9988 21.9905L19.2398 21.9898L19.2399 23.7494H20.9988V21.9905Z"/>
<path d="M22.909 14.7529H17.9897V16.5118H22.909V14.7529Z"/>
<path d="M15.1206 0H13.3617V1.75884H15.1206V0Z"/>
<path d="M13.9632 22.1911H8.87861V23.9499H13.9632V22.1911Z"/>
<path d="M13.9632 14.9547H8.87861V16.7135H13.9632V14.9547Z"/>
<path d="M8.87861 16.7135L7.12012 16.7131V22.1911L8.87861 22.1911V16.7135Z"/>
<path d="M24.6682 16.5124L22.909 16.5118L22.9094 21.9904H24.6682V16.5124Z"/>
<path d="M18.6384 0H16.8796V1.75884H18.6384V0Z"/>
<path d="M15.7224 16.7131L13.9632 16.7135L13.9636 18.4719L15.7226 18.4726L15.7224 16.7131Z"/>
<path d="M30.2411 5.75931V7.51815H25.7588V5.75931H24V3.51787H8V5.75931H6.24116V7.51815H1.75884V5.75931H0V29.5516H1.99986V31.5514H3.99972V33.5513H5.99957V35.5512H9.99986V37.551H22.0001V35.5512H26.0004V33.5513H28.0003V31.5514H30.0001V29.5516H32V5.75931H30.2411ZM25.9999 27.5517V29.5516H24V31.5514H22.0001V33.5513H9.99986V31.5514H8V29.5516H6.00014V27.5517H4.00028V11.5184H8.00055V9.27698H9.57652V7.51815H22.2423V9.27698H24.0011V11.5184H28.0014V27.5517H25.9999Z"/>
</mask>
<path d="M17.4814 18.4726H15.7226V20.2314H17.4814V18.4726Z" fill="#1F37E1"/>
<path d="M19.2398 20.231L17.4814 20.2314L17.481 21.9898H19.2398V20.231Z" fill="#1F37E1"/>
<path d="M20.9988 21.9905L19.2398 21.9898L19.2399 23.7494H20.9988V21.9905Z" fill="#1F37E1"/>
<path d="M22.909 14.7529H17.9897V16.5118H22.909V14.7529Z" fill="#1F37E1"/>
<path d="M15.1206 0H13.3617V1.75884H15.1206V0Z" fill="#1F37E1"/>
<path d="M13.9632 22.1911H8.87861V23.9499H13.9632V22.1911Z" fill="#1F37E1"/>
<path d="M13.9632 14.9547H8.87861V16.7135H13.9632V14.9547Z" fill="#1F37E1"/>
<path d="M8.87861 16.7135L7.12012 16.7131V22.1911L8.87861 22.1911V16.7135Z" fill="#1F37E1"/>
<path d="M24.6682 16.5124L22.909 16.5118L22.9094 21.9904H24.6682V16.5124Z" fill="#1F37E1"/>
<path d="M18.6384 0H16.8796V1.75884H18.6384V0Z" fill="#1F37E1"/>
<path d="M15.7224 16.7131L13.9632 16.7135L13.9636 18.4719L15.7226 18.4726L15.7224 16.7131Z" fill="#1F37E1"/>
<path d="M30.2411 5.75931V7.51815H25.7588V5.75931H24V3.51787H8V5.75931H6.24116V7.51815H1.75884V5.75931H0V29.5516H1.99986V31.5514H3.99972V33.5513H5.99957V35.5512H9.99986V37.551H22.0001V35.5512H26.0004V33.5513H28.0003V31.5514H30.0001V29.5516H32V5.75931H30.2411ZM25.9999 27.5517V29.5516H24V31.5514H22.0001V33.5513H9.99986V31.5514H8V29.5516H6.00014V27.5517H4.00028V11.5184H8.00055V9.27698H9.57652V7.51815H22.2423V9.27698H24.0011V11.5184H28.0014V27.5517H25.9999Z" fill="#1F37E1"/>
<path d="M17.4814 18.4726H18.4414V17.5126H17.4814V18.4726ZM15.7226 20.2314H14.7626V21.1914H15.7226V20.2314ZM19.2398 20.231H20.1998V19.2707L19.2396 19.271L19.2398 20.231ZM17.481 21.9898L16.521 21.9896L16.5207 22.9498H17.481V21.9898ZM20.9988 21.9905H21.9588V21.0309L20.9992 21.0305L20.9988 21.9905ZM20.9988 23.7494V24.7094H21.9588V23.7494H20.9988ZM19.2399 23.7494L18.2799 23.7494L18.28 24.7094H19.2399V23.7494ZM17.9897 14.7529V13.7929H17.0297V14.7529H17.9897ZM22.909 14.7529H23.869V13.7929H22.909V14.7529ZM17.9897 16.5118H17.0297V17.4718H17.9897V16.5118ZM13.3617 0V-0.96H12.4017V0H13.3617ZM15.1206 0H16.0806V-0.96H15.1206V0ZM15.1206 1.75884V2.71884H16.0806V1.75884H15.1206ZM13.3617 1.75884H12.4017V2.71884H13.3617V1.75884ZM13.9632 22.1911H14.9232V21.2311H13.9632V22.1911ZM13.9632 23.9499V24.9099H14.9232V23.9499H13.9632ZM8.87861 23.9499H7.91861V24.9099H8.87861V23.9499ZM8.87861 14.9547V13.9947H7.91861V14.9547H8.87861ZM13.9632 14.9547H14.9232V13.9947H13.9632V14.9547ZM7.12012 16.7131L7.12035 15.7531L6.16012 15.7528V16.7131H7.12012ZM7.12012 22.1911H6.16012V23.1511L7.12011 23.1511L7.12012 22.1911ZM24.6682 16.5124H25.6282V15.5528L24.6686 15.5524L24.6682 16.5124ZM24.6682 21.9904V22.9504H25.6282V21.9904H24.6682ZM22.9094 21.9904L21.9494 21.9905L21.9494 22.9504H22.9094V21.9904ZM16.8796 0V-0.96H15.9196V0H16.8796ZM18.6384 0H19.5984V-0.96H18.6384V0ZM18.6384 1.75884V2.71884H19.5984V1.75884H18.6384ZM16.8796 1.75884H15.9196V2.71884H16.8796V1.75884ZM15.7224 16.7131L16.6824 16.713L16.6824 15.7528L15.7222 15.7531L15.7224 16.7131ZM13.9636 18.4719L13.0036 18.4721L13.0038 19.4316L13.9632 19.4319L13.9636 18.4719ZM30.2411 5.75931V4.79931H29.2811V5.75931H30.2411ZM30.2411 7.51815V8.47815H31.2011V7.51815H30.2411ZM25.7588 7.51815H24.7988V8.47815H25.7588V7.51815ZM25.7588 5.75931H26.7188V4.79931H25.7588V5.75931ZM24 5.75931H23.04V6.71931H24V5.75931ZM24 3.51787H24.96V2.55787H24V3.51787ZM8 3.51787V2.55787H7.04V3.51787H8ZM8 5.75931V6.71931H8.96V5.75931H8ZM6.24116 5.75931V4.79931H5.28116V5.75931H6.24116ZM6.24116 7.51815V8.47815H7.20116V7.51815H6.24116ZM1.75884 7.51815H0.798835V8.47815H1.75884V7.51815ZM1.75884 5.75931H2.71884V4.79931H1.75884V5.75931ZM0 5.75931V4.79931H-0.96V5.75931H0ZM0 29.5516H-0.96V30.5116H0V29.5516ZM1.99986 29.5516H2.95986V28.5916H1.99986V29.5516ZM1.99986 31.5514H1.03986V32.5114H1.99986V31.5514ZM3.99972 31.5514H4.95972V30.5914H3.99972V31.5514ZM3.99972 33.5513H3.03972V34.5113H3.99972V33.5513ZM5.99957 33.5513H6.95957V32.5913H5.99957V33.5513ZM5.99957 35.5512H5.03957V36.5112H5.99957V35.5512ZM9.99986 35.5512H10.9599V34.5912H9.99986V35.5512ZM9.99986 37.551H9.03986V38.511H9.99986V37.551ZM22.0001 37.551V38.511H22.9601V37.551H22.0001ZM22.0001 35.5512V34.5912H21.0401V35.5512H22.0001ZM26.0004 35.5512V36.5112H26.9604V35.5512H26.0004ZM26.0004 33.5513V32.5913H25.0404V33.5513H26.0004ZM28.0003 33.5513V34.5113H28.9603V33.5513H28.0003ZM28.0003 31.5514V30.5914H27.0403V31.5514H28.0003ZM30.0001 31.5514V32.5114H30.9601V31.5514H30.0001ZM30.0001 29.5516V28.5916H29.0401V29.5516H30.0001ZM32 29.5516V30.5116H32.96V29.5516H32ZM32 5.75931H32.96V4.79931H32V5.75931ZM25.9999 27.5517V26.5917H25.0399V27.5517H25.9999ZM25.9999 29.5516V30.5116H26.9599V29.5516H25.9999ZM24 29.5516V28.5916H23.04V29.5516H24ZM24 31.5514V32.5114H24.96V31.5514H24ZM22.0001 31.5514V30.5914H21.0401V31.5514H22.0001ZM22.0001 33.5513V34.5113H22.9601V33.5513H22.0001ZM9.99986 33.5513H9.03986V34.5113H9.99986V33.5513ZM9.99986 31.5514H10.9599V30.5914H9.99986V31.5514ZM8 31.5514H7.04V32.5114H8V31.5514ZM8 29.5516H8.96V28.5916H8V29.5516ZM6.00014 29.5516H5.04014V30.5116H6.00014V29.5516ZM6.00014 27.5517H6.96014V26.5917H6.00014V27.5517ZM4.00028 27.5517H3.04028V28.5117H4.00028V27.5517ZM4.00028 11.5184V10.5584H3.04028V11.5184H4.00028ZM8.00055 11.5184V12.4784H8.96055V11.5184H8.00055ZM8.00055 9.27698V8.31698H7.04055V9.27698H8.00055ZM9.57652 9.27698V10.237H10.5365V9.27698H9.57652ZM9.57652 7.51815V6.55815H8.61652V7.51815H9.57652ZM22.2423 7.51815H23.2023V6.55815H22.2423V7.51815ZM22.2423 9.27698H21.2823V10.237H22.2423V9.27698ZM24.0011 9.27698H24.9611V8.31698H24.0011V9.27698ZM24.0011 11.5184H23.0411V12.4784H24.0011V11.5184ZM28.0014 11.5184H28.9614V10.5584H28.0014V11.5184ZM28.0014 27.5517V28.5117H28.9614V27.5517H28.0014ZM15.7226 18.4726V19.4326H17.4814V18.4726V17.5126H15.7226V18.4726ZM17.4814 18.4726H16.5214V20.2314H17.4814H18.4414V18.4726H17.4814ZM17.4814 20.2314V19.2714H15.7226V20.2314V21.1914H17.4814V20.2314ZM15.7226 20.2314H16.6826V18.4726H15.7226H14.7626V20.2314H15.7226ZM17.4814 20.2314L17.4816 21.1914L19.24 21.191L19.2398 20.231L19.2396 19.271L17.4811 19.2714L17.4814 20.2314ZM19.2398 20.231H18.2798V21.9898H19.2398H20.1998V20.231H19.2398ZM19.2398 21.9898V21.0298H17.481V21.9898V22.9498H19.2398V21.9898ZM17.481 21.9898L18.441 21.99L18.4414 20.2316L17.4814 20.2314L16.5214 20.2312L16.521 21.9896L17.481 21.9898ZM19.2398 21.9898L19.2394 22.9498L20.9984 22.9505L20.9988 21.9905L20.9992 21.0305L19.2402 21.0298L19.2398 21.9898ZM20.9988 21.9905H20.0388V23.7494H20.9988H21.9588V21.9905H20.9988ZM20.9988 23.7494V22.7894H19.2399V23.7494V24.7094H20.9988V23.7494ZM19.2399 23.7494L20.1999 23.7493L20.1998 21.9897L19.2398 21.9898L18.2798 21.9899L18.2799 23.7494L19.2399 23.7494ZM17.9897 14.7529V15.7129H22.909V14.7529V13.7929H17.9897V14.7529ZM22.909 14.7529H21.949V16.5118H22.909H23.869V14.7529H22.909ZM22.909 16.5118V15.5518H17.9897V16.5118V17.4718H22.909V16.5118ZM17.9897 16.5118H18.9497V14.7529H17.9897H17.0297V16.5118H17.9897ZM13.3617 0V0.96H15.1206V0V-0.96H13.3617V0ZM15.1206 0H14.1606V1.75884H15.1206H16.0806V0H15.1206ZM15.1206 1.75884V0.798835H13.3617V1.75884V2.71884H15.1206V1.75884ZM13.3617 1.75884H14.3217V0H13.3617H12.4017V1.75884H13.3617ZM8.87861 22.1911V23.1511H13.9632V22.1911V21.2311H8.87861V22.1911ZM13.9632 22.1911H13.0032V23.9499H13.9632H14.9232V22.1911H13.9632ZM13.9632 23.9499V22.9899H8.87861V23.9499V24.9099H13.9632V23.9499ZM8.87861 23.9499H9.83861V22.1911H8.87861H7.91861V23.9499H8.87861ZM8.87861 14.9547V15.9147H13.9632V14.9547V13.9947H8.87861V14.9547ZM13.9632 14.9547H13.0032V16.7135H13.9632H14.9232V14.9547H13.9632ZM13.9632 16.7135V15.7535H8.87861V16.7135V17.6735H13.9632V16.7135ZM8.87861 16.7135H9.83861V14.9547H8.87861H7.91861V16.7135H8.87861ZM7.12012 16.7131L7.11988 17.6731L8.87838 17.6735L8.87861 16.7135L8.87885 15.7535L7.12035 15.7531L7.12012 16.7131ZM8.87861 16.7135H7.91861V22.1911H8.87861H9.83861V16.7135H8.87861ZM8.87861 22.1911L8.87862 21.2311L7.12012 21.2311L7.12012 22.1911L7.12011 23.1511L8.87861 23.1511L8.87861 22.1911ZM7.12012 22.1911H8.08012V16.7131H7.12012H6.16012V22.1911H7.12012ZM22.909 16.5118L22.9086 17.4718L24.6679 17.4724L24.6682 16.5124L24.6686 15.5524L22.9093 15.5518L22.909 16.5118ZM24.6682 16.5124H23.7082V21.9904H24.6682H25.6282V16.5124H24.6682ZM24.6682 21.9904V21.0304H22.9094V21.9904V22.9504H24.6682V21.9904ZM22.9094 21.9904L23.8694 21.9904L23.869 16.5117L22.909 16.5118L21.949 16.5118L21.9494 21.9905L22.9094 21.9904ZM16.8796 0V0.96H18.6384V0V-0.96H16.8796V0ZM18.6384 0H17.6784V1.75884H18.6384H19.5984V0H18.6384ZM18.6384 1.75884V0.798835H16.8796V1.75884V2.71884H18.6384V1.75884ZM16.8796 1.75884H17.8396V0H16.8796H15.9196V1.75884H16.8796ZM13.9632 16.7135L13.9634 17.6735L15.7227 17.6731L15.7224 16.7131L15.7222 15.7531L13.963 15.7535L13.9632 16.7135ZM15.7224 16.7131L14.7624 16.7132L14.7626 18.4726L15.7226 18.4726L16.6826 18.4725L16.6824 16.713L15.7224 16.7131ZM15.7226 18.4726L15.7229 17.5126L13.9639 17.5119L13.9636 18.4719L13.9632 19.4319L15.7222 19.4326L15.7226 18.4726ZM13.9636 18.4719L14.9236 18.4717L14.9232 16.7133L13.9632 16.7135L13.0032 16.7137L13.0036 18.4721L13.9636 18.4719ZM30.2411 5.75931H29.2811V7.51815H30.2411H31.2011V5.75931H30.2411ZM30.2411 7.51815V6.55815H25.7588V7.51815V8.47815H30.2411V7.51815ZM25.7588 7.51815H26.7188V5.75931H25.7588H24.7988V7.51815H25.7588ZM25.7588 5.75931V4.79931H24V5.75931V6.71931H25.7588V5.75931ZM24 5.75931H24.96V3.51787H24H23.04V5.75931H24ZM24 3.51787V2.55787H8V3.51787V4.47787H24V3.51787ZM8 3.51787H7.04V5.75931H8H8.96V3.51787H8ZM8 5.75931V4.79931H6.24116V5.75931V6.71931H8V5.75931ZM6.24116 5.75931H5.28116V7.51815H6.24116H7.20116V5.75931H6.24116ZM6.24116 7.51815V6.55815H1.75884V7.51815V8.47815H6.24116V7.51815ZM1.75884 7.51815H2.71884V5.75931H1.75884H0.798835V7.51815H1.75884ZM1.75884 5.75931V4.79931H0V5.75931V6.71931H1.75884V5.75931ZM0 5.75931H-0.96V29.5516H0H0.96V5.75931H0ZM0 29.5516V30.5116H1.99986V29.5516V28.5916H0V29.5516ZM1.99986 29.5516H1.03986V31.5514H1.99986H2.95986V29.5516H1.99986ZM1.99986 31.5514V32.5114H3.99972V31.5514V30.5914H1.99986V31.5514ZM3.99972 31.5514H3.03972V33.5513H3.99972H4.95972V31.5514H3.99972ZM3.99972 33.5513V34.5113H5.99957V33.5513V32.5913H3.99972V33.5513ZM5.99957 33.5513H5.03957V35.5512H5.99957H6.95957V33.5513H5.99957ZM5.99957 35.5512V36.5112H9.99986V35.5512V34.5912H5.99957V35.5512ZM9.99986 35.5512H9.03986V37.551H9.99986H10.9599V35.5512H9.99986ZM9.99986 37.551V38.511H22.0001V37.551V36.591H9.99986V37.551ZM22.0001 37.551H22.9601V35.5512H22.0001H21.0401V37.551H22.0001ZM22.0001 35.5512V36.5112H26.0004V35.5512V34.5912H22.0001V35.5512ZM26.0004 35.5512H26.9604V33.5513H26.0004H25.0404V35.5512H26.0004ZM26.0004 33.5513V34.5113H28.0003V33.5513V32.5913H26.0004V33.5513ZM28.0003 33.5513H28.9603V31.5514H28.0003H27.0403V33.5513H28.0003ZM28.0003 31.5514V32.5114H30.0001V31.5514V30.5914H28.0003V31.5514ZM30.0001 31.5514H30.9601V29.5516H30.0001H29.0401V31.5514H30.0001ZM30.0001 29.5516V30.5116H32V29.5516V28.5916H30.0001V29.5516ZM32 29.5516H32.96V5.75931H32H31.04V29.5516H32ZM32 5.75931V4.79931H30.2411V5.75931V6.71931H32V5.75931ZM25.9999 27.5517H25.0399V29.5516H25.9999H26.9599V27.5517H25.9999ZM25.9999 29.5516V28.5916H24V29.5516V30.5116H25.9999V29.5516ZM24 29.5516H23.04V31.5514H24H24.96V29.5516H24ZM24 31.5514V30.5914H22.0001V31.5514V32.5114H24V31.5514ZM22.0001 31.5514H21.0401V33.5513H22.0001H22.9601V31.5514H22.0001ZM22.0001 33.5513V32.5913H9.99986V33.5513V34.5113H22.0001V33.5513ZM9.99986 33.5513H10.9599V31.5514H9.99986H9.03986V33.5513H9.99986ZM9.99986 31.5514V30.5914H8V31.5514V32.5114H9.99986V31.5514ZM8 31.5514H8.96V29.5516H8H7.04V31.5514H8ZM8 29.5516V28.5916H6.00014V29.5516V30.5116H8V29.5516ZM6.00014 29.5516H6.96014V27.5517H6.00014H5.04014V29.5516H6.00014ZM6.00014 27.5517V26.5917H4.00028V27.5517V28.5117H6.00014V27.5517ZM4.00028 27.5517H4.96028V11.5184H4.00028H3.04028V27.5517H4.00028ZM4.00028 11.5184V12.4784H8.00055V11.5184V10.5584H4.00028V11.5184ZM8.00055 11.5184H8.96055V9.27698H8.00055H7.04055V11.5184H8.00055ZM8.00055 9.27698V10.237H9.57652V9.27698V8.31698H8.00055V9.27698ZM9.57652 9.27698H10.5365V7.51815H9.57652H8.61652V9.27698H9.57652ZM9.57652 7.51815V8.47815H22.2423V7.51815V6.55815H9.57652V7.51815ZM22.2423 7.51815H21.2823V9.27698H22.2423H23.2023V7.51815H22.2423ZM22.2423 9.27698V10.237H24.0011V9.27698V8.31698H22.2423V9.27698ZM24.0011 9.27698H23.0411V11.5184H24.0011H24.9611V9.27698H24.0011ZM24.0011 11.5184V12.4784H28.0014V11.5184V10.5584H24.0011V11.5184ZM28.0014 11.5184H27.0414V27.5517H28.0014H28.9614V11.5184H28.0014ZM28.0014 27.5517V26.5917H25.9999V27.5517V28.5117H28.0014V27.5517Z" fill="#1F37E1" mask="url(#path-1-inside-1_251_318)"/>
</svg>
