<svg width="22" height="26" viewBox="0 0 22 26" fill="none" xmlns="http://www.w3.org/2000/svg">
<path d="M13.2018 10.8335H8.80189V15.1666H13.2018V10.8335Z" fill="#1F37E1"/>
<path d="M15.4016 8.66664H13.2016L13.2018 10.8335L15.4016 10.8332V8.66664Z" fill="#1F37E1"/>
<path d="M17.6005 6.50007H15.4005L15.4016 8.66664L17.6005 8.66667V6.50007Z" fill="#1F37E1"/>
<path d="M19.8013 4.33332H17.6014L17.6005 6.50007L19.8013 6.49991V4.33332Z" fill="#1F37E1"/>
<path d="M22 2.16681H19.8001V4.3334H22V2.16681Z" fill="#1F37E1"/>
<path d="M22 21.6669H19.8001V23.8335H22V21.6669Z" fill="#1F37E1"/>
<path d="M19.8013 19.5001H17.6014V21.6667H19.8013V19.5001Z" fill="#1F37E1"/>
<path d="M17.6005 17.3335H15.4005V19.5001L17.6014 19.5001L17.6005 17.3335Z" fill="#1F37E1"/>
<path d="M15.4016 15.1668L13.2018 15.1666L13.2016 17.3334L15.4005 17.3335L15.4016 15.1668Z" fill="#1F37E1"/>
<path d="M8.80099 8.66678H6.60103V10.8334L8.80189 10.8335L8.80099 8.66678Z" fill="#1F37E1"/>
<path d="M12.1002 4.33341H9.90028V6.5H12.1002V4.33341Z" fill="#1F37E1"/>
<path d="M7.70114 4.33357L9.90028 4.33341L9.9011 2.1666H12.1014L12.1002 4.33341L14.3014 4.33357V2.1666H19.8015V0H2.20107V2.1666H7.70114V4.33357Z" fill="#1F37E1"/>
<path d="M19.8015 23.8334H2.20107V26H19.8015V23.8334Z" fill="#1F37E1"/>
<path d="M6.59971 6.50013H4.39975V8.66673H6.59971V6.50013Z" fill="#1F37E1"/>
<path d="M4.401 4.33332H2.20107V6.49991H4.401V4.33332Z" fill="#1F37E1"/>
<path d="M2.20107 2.1666L0 2.1667V4.33329L2.20107 4.33332V2.1666Z" fill="#1F37E1"/>
<path d="M2.19996 21.6669H0V23.8335L2.20107 23.8334L2.19996 21.6669Z" fill="#1F37E1"/>
<path d="M4.401 19.5001H2.20107L2.19996 21.6669L4.401 21.6667V19.5001Z" fill="#1F37E1"/>
<path d="M6.59971 17.3336H4.39975V19.5002H6.59971V17.3336Z" fill="#1F37E1"/>
<path d="M8.80189 15.1666L6.60103 15.1668V17.3334H8.80099L8.80189 15.1666Z" fill="#1F37E1"/>
<path d="M12.1002 17.3335H9.90028V19.5001H12.1002V17.3335Z" fill="#1F37E1"/>
<path d="M14.3011 19.5001L12.1002 19.5001L12.1011 21.6667H14.3011V19.5001Z" fill="#1F37E1"/>
<path d="M9.90028 19.5001L7.70135 19.5001V21.6667H9.90131L9.90028 19.5001Z" fill="#1F37E1"/>
</svg>
