<svg width="31" height="26" viewBox="0 0 31 26" fill="none" xmlns="http://www.w3.org/2000/svg">
<path d="M5.46799 9.58956H4.10227V10.9553H5.46799V9.58956Z" fill="#1F37E1"/>
<path d="M13.6791 24.6343H12.3134V26H13.6791V24.6343Z" fill="#1F37E1"/>
<path d="M1.36571 24.6343H0V26H1.36571V24.6343Z" fill="#1F37E1"/>
<path d="M30.0421 24.6343H28.6764V26H30.0421V24.6343Z" fill="#1F37E1"/>
<path d="M28.6771 16.4228H24.631V10.9488H25.9905V9.58313H24.6247V10.9484H16.4198V8.21115H20.5252V0H9.57681V8.21115H13.6826V10.9484H5.47148V16.4223H1.36614L1.36571 24.6343L12.314 24.6335V16.4223H8.20869V13.6851H21.8938V16.4223H17.7292V24.6335H16.3654V25.9992H17.7311V24.6335H28.6776L28.6771 16.4228ZM9.5773 19.16V21.8972H4.10335V19.16H9.5773ZM12.314 5.4749V2.73769H17.788V5.4749H12.314ZM25.9399 21.8972H20.4659V19.16H25.9399V21.8972Z" fill="#1F37E1"/>
</svg>
