<svg width="1440" height="3101" viewBox="0 0 1440 3101" fill="none" xmlns="http://www.w3.org/2000/svg">
<g opacity="0.24" filter="url(#filter0_d_270_2844)">
<g clip-path="url(#clip0_270_2844)">
<rect x="-240" y="1650" width="1165" height="2058" rx="120" transform="rotate(-90 -240 1650)" fill="black"/>
<g filter="url(#filter1_f_270_2844)">
<path d="M2010.92 988.313C1659.45 1208.18 2282.43 1420.38 2292.98 1610.47C2306.48 1853.6 1838.36 2383.04 1400.96 2142.84C452.212 1621.84 1629.77 1737.14 1503.14 1054.12C1481.02 934.83 797.656 195.357 1756.14 134.273C2294.82 99.9426 2586.59 628.193 2010.92 988.313Z" fill="url(#paint0_linear_270_2844)"/>
</g>
<g style="mix-blend-mode:plus-lighter" opacity="0.4" filter="url(#filter2_f_270_2844)">
<path d="M2010.92 988.313C1659.45 1208.18 2282.43 1420.38 2292.98 1610.47C2306.48 1853.6 1838.36 2383.04 1400.96 2142.84C452.212 1621.84 1629.77 1737.14 1503.14 1054.12C1481.02 934.83 797.656 195.357 1756.14 134.273C2294.82 99.9426 2586.59 628.193 2010.92 988.313Z" fill="url(#paint1_linear_270_2844)"/>
</g>
<g filter="url(#filter3_f_270_2844)">
<path d="M359.888 1032.25C8.41973 813.513 631.403 602.404 641.954 413.286C655.449 171.409 460.903 -37.6549 -70.6222 -126.355C-735.029 -237.231 -635.06 42.5557 -761.697 722.074C-888.335 1401.59 -28.332 2192.33 814.764 1753.09C1255.82 1523.3 935.563 1390.52 359.888 1032.25Z" fill="url(#paint2_linear_270_2844)"/>
</g>
<g style="mix-blend-mode:plus-lighter" opacity="0.4" filter="url(#filter4_f_270_2844)">
<path d="M359.888 1032.25C8.41973 813.513 631.403 602.404 641.954 413.286C655.449 171.409 460.903 -37.6549 -70.6222 -126.355C-735.029 -237.231 -635.06 42.5557 -761.697 722.074C-888.335 1401.59 -28.332 2192.33 814.764 1753.09C1255.82 1523.3 935.563 1390.52 359.888 1032.25Z" fill="url(#paint3_linear_270_2844)"/>
</g>
<rect width="1444" height="168" transform="matrix(1 0 0 -1 0 653)" fill="url(#paint4_linear_270_2844)"/>
<rect y="1482" width="1444" height="168" fill="url(#paint5_linear_270_2844)"/>
</g>
<rect x="-239" y="1649" width="1163" height="2056" rx="119" transform="rotate(-90 -239 1649)" stroke="black" stroke-opacity="0.6" stroke-width="2"/>
</g>
<g opacity="0.11" filter="url(#filter5_d_270_2844)">
<g clip-path="url(#clip1_270_2844)">
<g filter="url(#filter6_f_270_2844)">
<path d="M1725.12 482.187C1513.63 422.459 1579.76 702.41 1485.22 761.09C1364.3 836.141 961.249 825.019 961.602 602.087C962.37 118.525 1233.97 565.033 1548.75 323.059C1603.72 280.799 1791.09 -172.833 2091.63 145.793C2260.54 324.867 2071.53 580.015 1725.12 482.187Z" fill="url(#paint6_linear_270_2844)"/>
</g>
<g style="mix-blend-mode:plus-lighter" opacity="0.4" filter="url(#filter7_f_270_2844)">
<path d="M1725.12 482.187C1513.63 422.459 1579.76 702.41 1485.22 761.09C1364.3 836.141 961.249 825.019 961.602 602.087C962.37 118.525 1233.97 565.033 1548.75 323.059C1603.72 280.799 1791.09 -172.833 2091.63 145.793C2260.54 324.867 2071.53 580.015 1725.12 482.187Z" fill="url(#paint7_linear_270_2844)"/>
</g>
<g filter="url(#filter8_f_270_2844)">
<path d="M1434.84 550.404C1449.53 360.592 1733.06 519.162 1833.78 466.734C1962.6 399.68 2016.22 268.479 1913.28 53.3393C1784.61 -215.585 1667.96 -96.9694 1281.22 59.8943C894.49 216.758 726.449 757.102 1189.53 926.088C1431.78 1014.49 1410.78 861.298 1434.84 550.404Z" fill="url(#paint8_linear_270_2844)"/>
</g>
<g style="mix-blend-mode:plus-lighter" opacity="0.4" filter="url(#filter9_f_270_2844)">
<path d="M1434.84 550.404C1449.53 360.592 1733.06 519.162 1833.78 466.734C1962.6 399.68 2016.22 268.479 1913.28 53.3393C1784.61 -215.585 1667.96 -96.9694 1281.22 59.8943C894.49 216.758 726.449 757.102 1189.53 926.088C1431.78 1014.49 1410.78 861.298 1434.84 550.404Z" fill="url(#paint9_linear_270_2844)"/>
</g>
<g filter="url(#filter10_f_270_2844)">
<path d="M1695.76 465.04C1710.46 275.229 1993.98 433.798 2094.7 381.37C2223.52 314.316 2277.14 183.115 2174.21 -32.0245C2045.54 -300.949 1928.88 -182.333 1542.15 -25.4695C1155.41 131.394 987.373 671.739 1450.45 840.724C1692.7 929.127 1671.7 775.934 1695.76 465.04Z" fill="url(#paint10_linear_270_2844)"/>
</g>
<g style="mix-blend-mode:plus-lighter" opacity="0.4" filter="url(#filter11_f_270_2844)">
<path d="M1695.76 465.04C1710.46 275.229 1993.98 433.798 2094.7 381.37C2223.52 314.316 2277.14 183.115 2174.21 -32.0245C2045.54 -300.949 1928.88 -182.333 1542.15 -25.4695C1155.41 131.394 987.373 671.739 1450.45 840.724C1692.7 929.127 1671.7 775.934 1695.76 465.04Z" fill="url(#paint11_linear_270_2844)"/>
</g>
<g filter="url(#filter12_f_270_2844)">
<path d="M1668.56 600.853C1457.07 541.125 1523.2 821.076 1428.66 879.756C1307.74 954.807 904.69 943.685 905.044 720.753C905.811 237.191 1177.41 683.699 1492.19 441.725C1547.16 399.465 1734.53 -54.1673 2035.07 264.459C2203.98 443.533 2014.97 698.681 1668.56 600.853Z" fill="url(#paint12_linear_270_2844)"/>
</g>
<g style="mix-blend-mode:plus-lighter" opacity="0.4" filter="url(#filter13_f_270_2844)">
<path d="M1668.56 600.853C1457.07 541.125 1523.2 821.076 1428.66 879.756C1307.74 954.807 904.69 943.685 905.044 720.753C905.811 237.191 1177.41 683.699 1492.19 441.725C1547.16 399.465 1734.53 -54.1673 2035.07 264.459C2203.98 443.533 2014.97 698.681 1668.56 600.853Z" fill="url(#paint13_linear_270_2844)"/>
</g>
<rect x="743" y="329" width="698" height="168" fill="url(#paint14_linear_270_2844)"/>
<rect width="698" height="168" transform="matrix(1 0 0 -1 743 168)" fill="url(#paint15_linear_270_2844)"/>
</g>
<rect x="743.572" y="496.54" width="496.08" height="882.635" rx="54.762" transform="rotate(-90 743.572 496.54)" stroke="black" stroke-opacity="0.6" stroke-width="0.92037" shape-rendering="crispEdges"/>
</g>
<g opacity="0.11" filter="url(#filter14_d_270_2844)">
<g clip-path="url(#clip2_270_2844)">
<g filter="url(#filter15_f_270_2844)">
<path d="M-239.455 2138.19C-27.9608 2078.46 -94.0946 2358.41 0.448181 2417.09C121.366 2492.14 524.418 2481.02 524.064 2258.09C523.297 1774.52 251.7 2221.03 -63.0805 1979.06C-118.056 1936.8 -305.423 1483.17 -605.965 1801.79C-774.874 1980.87 -585.865 2236.02 -239.455 2138.19Z" fill="url(#paint16_linear_270_2844)"/>
</g>
<g style="mix-blend-mode:plus-lighter" opacity="0.4" filter="url(#filter16_f_270_2844)">
<path d="M-239.455 2138.19C-27.9608 2078.46 -94.0946 2358.41 0.448181 2417.09C121.366 2492.14 524.418 2481.02 524.064 2258.09C523.297 1774.52 251.7 2221.03 -63.0805 1979.06C-118.056 1936.8 -305.423 1483.17 -605.965 1801.79C-774.874 1980.87 -585.865 2236.02 -239.455 2138.19Z" fill="url(#paint17_linear_270_2844)"/>
</g>
<g filter="url(#filter17_f_270_2844)">
<path d="M50.8268 2206.4C36.1347 2016.59 -247.391 2175.16 -348.112 2122.73C-476.93 2055.68 -530.549 1924.48 -427.614 1709.34C-298.946 1440.41 -182.291 1559.03 204.443 1715.89C591.176 1872.76 759.218 2413.1 296.139 2582.09C53.8863 2670.49 74.8913 2517.3 50.8268 2206.4Z" fill="url(#paint18_linear_270_2844)"/>
</g>
<g style="mix-blend-mode:plus-lighter" opacity="0.4" filter="url(#filter18_f_270_2844)">
<path d="M50.8268 2206.4C36.1347 2016.59 -247.391 2175.16 -348.112 2122.73C-476.93 2055.68 -530.549 1924.48 -427.614 1709.34C-298.946 1440.41 -182.291 1559.03 204.443 1715.89C591.176 1872.76 759.218 2413.1 296.139 2582.09C53.8863 2670.49 74.8913 2517.3 50.8268 2206.4Z" fill="url(#paint19_linear_270_2844)"/>
</g>
<g filter="url(#filter19_f_270_2844)">
<path d="M-210.097 2121.04C-224.79 1931.23 -508.315 2089.8 -609.036 2037.37C-737.854 1970.32 -791.473 1839.11 -688.539 1623.98C-559.871 1355.05 -443.216 1473.67 -56.4818 1630.53C330.252 1787.39 498.294 2327.74 35.215 2496.72C-207.038 2585.13 -186.033 2431.93 -210.097 2121.04Z" fill="url(#paint20_linear_270_2844)"/>
</g>
<g style="mix-blend-mode:plus-lighter" opacity="0.4" filter="url(#filter20_f_270_2844)">
<path d="M-210.097 2121.04C-224.79 1931.23 -508.315 2089.8 -609.036 2037.37C-737.854 1970.32 -791.473 1839.11 -688.539 1623.98C-559.871 1355.05 -443.216 1473.67 -56.4818 1630.53C330.252 1787.39 498.294 2327.74 35.215 2496.72C-207.038 2585.13 -186.033 2431.93 -210.097 2121.04Z" fill="url(#paint21_linear_270_2844)"/>
</g>
<g filter="url(#filter21_f_270_2844)">
<path d="M-182.897 2256.85C28.5978 2197.13 -37.536 2477.08 57.0068 2535.76C177.924 2610.81 580.977 2599.69 580.623 2376.75C579.856 1893.19 308.258 2339.7 -6.52187 2097.73C-61.4977 2055.46 -248.865 1601.83 -549.406 1920.46C-718.316 2099.53 -529.306 2354.68 -182.897 2256.85Z" fill="url(#paint22_linear_270_2844)"/>
</g>
<g style="mix-blend-mode:plus-lighter" opacity="0.4" filter="url(#filter22_f_270_2844)">
<path d="M-182.897 2256.85C28.5978 2197.13 -37.536 2477.08 57.0068 2535.76C177.924 2610.81 580.977 2599.69 580.623 2376.75C579.856 1893.19 308.258 2339.7 -6.52187 2097.73C-61.4977 2055.46 -248.865 1601.83 -549.406 1920.46C-718.316 2099.53 -529.306 2354.68 -182.897 2256.85Z" fill="url(#paint23_linear_270_2844)"/>
</g>
<rect width="782" height="95" transform="matrix(-1 0 0 1 743 2058)" fill="url(#paint24_linear_270_2844)"/>
<rect x="743" y="1751" width="782" height="95" transform="rotate(180 743 1751)" fill="url(#paint25_linear_270_2844)"/>
</g>
<rect x="-0.460185" y="-0.460185" width="496.08" height="882.635" rx="54.762" transform="matrix(4.37114e-08 -1 -1 -4.37114e-08 741.635 2152.08)" stroke="black" stroke-opacity="0.6" stroke-width="0.92037" shape-rendering="crispEdges"/>
</g>
<g opacity="0.14" filter="url(#filter23_d_270_2844)">
<g clip-path="url(#clip3_270_2844)">
<g filter="url(#filter24_f_270_2844)">
<path d="M1370.21 3144.81C1395.47 2818.49 1882.91 3091.1 2056.06 3000.97C2277.53 2885.69 2369.71 2660.13 2192.74 2290.26C1971.54 1827.93 1770.99 2031.85 1106.12 2301.53C441.249 2571.21 152.354 3500.17 948.474 3790.68C1364.95 3942.66 1328.84 3679.3 1370.21 3144.81Z" fill="url(#paint26_linear_270_2844)"/>
</g>
<g style="mix-blend-mode:plus-lighter" opacity="0.4" filter="url(#filter25_f_270_2844)">
<path d="M1370.21 3144.81C1395.47 2818.49 1882.91 3091.1 2056.06 3000.97C2277.53 2885.69 2369.71 2660.13 2192.74 2290.26C1971.54 1827.93 1770.99 2031.85 1106.12 2301.53C441.249 2571.21 152.354 3500.17 948.474 3790.68C1364.95 3942.66 1328.84 3679.3 1370.21 3144.81Z" fill="url(#paint27_linear_270_2844)"/>
</g>
<g filter="url(#filter26_f_270_2844)">
<path d="M1818.79 2998.05C1844.05 2671.73 2331.49 2944.34 2504.64 2854.21C2726.11 2738.93 2818.29 2513.37 2641.32 2143.51C2420.12 1681.17 2219.57 1885.1 1554.7 2154.77C889.828 2424.45 600.932 3353.41 1397.05 3643.93C1813.53 3795.91 1777.42 3532.54 1818.79 2998.05Z" fill="url(#paint28_linear_270_2844)"/>
</g>
<g style="mix-blend-mode:plus-lighter" opacity="0.4" filter="url(#filter27_f_270_2844)">
<path d="M1818.79 2998.05C1844.05 2671.73 2331.49 2944.34 2504.64 2854.21C2726.11 2738.93 2818.29 2513.37 2641.32 2143.51C2420.12 1681.17 2219.57 1885.1 1554.7 2154.77C889.828 2424.45 600.932 3353.41 1397.05 3643.93C1813.53 3795.91 1777.42 3532.54 1818.79 2998.05Z" fill="url(#paint29_linear_270_2844)"/>
</g>
<g filter="url(#filter28_f_270_2844)">
<path d="M1772.03 3231.54C1408.43 3128.86 1522.13 3610.15 1359.59 3711.03C1151.71 3840.06 458.784 3820.94 459.393 3437.67C460.712 2606.34 927.639 3373.97 1468.81 2957.97C1563.32 2885.32 1885.44 2105.44 2402.13 2653.22C2692.52 2961.08 2367.57 3399.73 1772.03 3231.54Z" fill="url(#paint30_linear_270_2844)"/>
</g>
<g style="mix-blend-mode:plus-lighter" opacity="0.4" filter="url(#filter29_f_270_2844)">
<path d="M1772.03 3231.54C1408.43 3128.86 1522.13 3610.15 1359.59 3711.03C1151.71 3840.06 458.784 3820.94 459.393 3437.67C460.712 2606.34 927.639 3373.97 1468.81 2957.97C1563.32 2885.32 1885.44 2105.44 2402.13 2653.22C2692.52 2961.08 2367.57 3399.73 1772.03 3231.54Z" fill="url(#paint31_linear_270_2844)"/>
</g>
<rect x="1700" y="2398" width="967" height="199" transform="rotate(180 1700 2398)" fill="url(#paint32_linear_270_2844)"/>
</g>
<rect x="181.791" y="3052.21" width="852.855" height="1517.42" transform="rotate(-90 181.791 3052.21)" stroke="black" stroke-opacity="0.6" stroke-width="1.58229" shape-rendering="crispEdges"/>
</g>
<defs>
<filter id="filter0_d_270_2844" x="-268" y="485" width="2114" height="1225" filterUnits="userSpaceOnUse" color-interpolation-filters="sRGB">
<feFlood flood-opacity="0" result="BackgroundImageFix"/>
<feColorMatrix in="SourceAlpha" type="matrix" values="0 0 0 0 0 0 0 0 0 0 0 0 0 0 0 0 0 0 127 0" result="hardAlpha"/>
<feMorphology radius="12" operator="erode" in="SourceAlpha" result="effect1_dropShadow_270_2844"/>
<feOffset dy="32"/>
<feGaussianBlur stdDeviation="20"/>
<feComposite in2="hardAlpha" operator="out"/>
<feColorMatrix type="matrix" values="0 0 0 0 0 0 0 0 0 0 0 0 0 0 0 0 0 0 0.25 0"/>
<feBlend mode="normal" in2="BackgroundImageFix" result="effect1_dropShadow_270_2844"/>
<feBlend mode="normal" in="SourceGraphic" in2="effect1_dropShadow_270_2844" result="shape"/>
</filter>
<filter id="filter1_f_270_2844" x="728.341" y="-167.32" width="1897.16" height="2671.23" filterUnits="userSpaceOnUse" color-interpolation-filters="sRGB">
<feFlood flood-opacity="0" result="BackgroundImageFix"/>
<feBlend mode="normal" in="SourceGraphic" in2="BackgroundImageFix" result="shape"/>
<feGaussianBlur stdDeviation="150" result="effect1_foregroundBlur_270_2844"/>
</filter>
<filter id="filter2_f_270_2844" x="728.341" y="-167.32" width="1897.16" height="2671.23" filterUnits="userSpaceOnUse" color-interpolation-filters="sRGB">
<feFlood flood-opacity="0" result="BackgroundImageFix"/>
<feBlend mode="normal" in="SourceGraphic" in2="BackgroundImageFix" result="shape"/>
<feGaussianBlur stdDeviation="150" result="effect1_foregroundBlur_270_2844"/>
</filter>
<filter id="filter3_f_270_2844" x="-1074.17" y="-449.931" width="2395.09" height="2629.7" filterUnits="userSpaceOnUse" color-interpolation-filters="sRGB">
<feFlood flood-opacity="0" result="BackgroundImageFix"/>
<feBlend mode="normal" in="SourceGraphic" in2="BackgroundImageFix" result="shape"/>
<feGaussianBlur stdDeviation="150" result="effect1_foregroundBlur_270_2844"/>
</filter>
<filter id="filter4_f_270_2844" x="-1074.17" y="-449.931" width="2395.09" height="2629.7" filterUnits="userSpaceOnUse" color-interpolation-filters="sRGB">
<feFlood flood-opacity="0" result="BackgroundImageFix"/>
<feBlend mode="normal" in="SourceGraphic" in2="BackgroundImageFix" result="shape"/>
<feGaussianBlur stdDeviation="150" result="effect1_foregroundBlur_270_2844"/>
</filter>
<filter id="filter5_d_270_2844" x="730.226" y="0" width="909.326" height="524.611" filterUnits="userSpaceOnUse" color-interpolation-filters="sRGB">
<feFlood flood-opacity="0" result="BackgroundImageFix"/>
<feColorMatrix in="SourceAlpha" type="matrix" values="0 0 0 0 0 0 0 0 0 0 0 0 0 0 0 0 0 0 127 0" result="hardAlpha"/>
<feMorphology radius="5.52222" operator="erode" in="SourceAlpha" result="effect1_dropShadow_270_2844"/>
<feOffset dy="14.7259"/>
<feGaussianBlur stdDeviation="9.2037"/>
<feComposite in2="hardAlpha" operator="out"/>
<feColorMatrix type="matrix" values="0 0 0 0 0 0 0 0 0 0 0 0 0 0 0 0 0 0 0.25 0"/>
<feBlend mode="normal" in2="BackgroundImageFix" result="effect1_dropShadow_270_2844"/>
<feBlend mode="normal" in="SourceGraphic" in2="effect1_dropShadow_270_2844" result="shape"/>
</filter>
<filter id="filter6_f_270_2844" x="820.798" y="-107.743" width="1474.36" height="1051.39" filterUnits="userSpaceOnUse" color-interpolation-filters="sRGB">
<feFlood flood-opacity="0" result="BackgroundImageFix"/>
<feBlend mode="normal" in="SourceGraphic" in2="BackgroundImageFix" result="shape"/>
<feGaussianBlur stdDeviation="70.4023" result="effect1_foregroundBlur_270_2844"/>
</filter>
<filter id="filter7_f_270_2844" x="820.798" y="-107.743" width="1474.36" height="1051.39" filterUnits="userSpaceOnUse" color-interpolation-filters="sRGB">
<feFlood flood-opacity="0" result="BackgroundImageFix"/>
<feBlend mode="normal" in="SourceGraphic" in2="BackgroundImageFix" result="shape"/>
<feGaussianBlur stdDeviation="70.4023" result="effect1_foregroundBlur_270_2844"/>
</filter>
<filter id="filter8_f_270_2844" x="768.623" y="-247.18" width="1339.56" height="1338.87" filterUnits="userSpaceOnUse" color-interpolation-filters="sRGB">
<feFlood flood-opacity="0" result="BackgroundImageFix"/>
<feBlend mode="normal" in="SourceGraphic" in2="BackgroundImageFix" result="shape"/>
<feGaussianBlur stdDeviation="70.4023" result="effect1_foregroundBlur_270_2844"/>
</filter>
<filter id="filter9_f_270_2844" x="768.623" y="-247.18" width="1339.56" height="1338.87" filterUnits="userSpaceOnUse" color-interpolation-filters="sRGB">
<feFlood flood-opacity="0" result="BackgroundImageFix"/>
<feBlend mode="normal" in="SourceGraphic" in2="BackgroundImageFix" result="shape"/>
<feGaussianBlur stdDeviation="70.4023" result="effect1_foregroundBlur_270_2844"/>
</filter>
<filter id="filter10_f_270_2844" x="1029.55" y="-332.544" width="1339.56" height="1338.87" filterUnits="userSpaceOnUse" color-interpolation-filters="sRGB">
<feFlood flood-opacity="0" result="BackgroundImageFix"/>
<feBlend mode="normal" in="SourceGraphic" in2="BackgroundImageFix" result="shape"/>
<feGaussianBlur stdDeviation="70.4023" result="effect1_foregroundBlur_270_2844"/>
</filter>
<filter id="filter11_f_270_2844" x="1029.55" y="-332.544" width="1339.56" height="1338.87" filterUnits="userSpaceOnUse" color-interpolation-filters="sRGB">
<feFlood flood-opacity="0" result="BackgroundImageFix"/>
<feBlend mode="normal" in="SourceGraphic" in2="BackgroundImageFix" result="shape"/>
<feGaussianBlur stdDeviation="70.4023" result="effect1_foregroundBlur_270_2844"/>
</filter>
<filter id="filter12_f_270_2844" x="764.239" y="10.9225" width="1474.36" height="1051.39" filterUnits="userSpaceOnUse" color-interpolation-filters="sRGB">
<feFlood flood-opacity="0" result="BackgroundImageFix"/>
<feBlend mode="normal" in="SourceGraphic" in2="BackgroundImageFix" result="shape"/>
<feGaussianBlur stdDeviation="70.4023" result="effect1_foregroundBlur_270_2844"/>
</filter>
<filter id="filter13_f_270_2844" x="764.239" y="10.9225" width="1474.36" height="1051.39" filterUnits="userSpaceOnUse" color-interpolation-filters="sRGB">
<feFlood flood-opacity="0" result="BackgroundImageFix"/>
<feBlend mode="normal" in="SourceGraphic" in2="BackgroundImageFix" result="shape"/>
<feGaussianBlur stdDeviation="70.4023" result="effect1_foregroundBlur_270_2844"/>
</filter>
<filter id="filter14_d_270_2844" x="-153.885" y="1656" width="909.326" height="524.611" filterUnits="userSpaceOnUse" color-interpolation-filters="sRGB">
<feFlood flood-opacity="0" result="BackgroundImageFix"/>
<feColorMatrix in="SourceAlpha" type="matrix" values="0 0 0 0 0 0 0 0 0 0 0 0 0 0 0 0 0 0 127 0" result="hardAlpha"/>
<feMorphology radius="5.52222" operator="erode" in="SourceAlpha" result="effect1_dropShadow_270_2844"/>
<feOffset dy="14.7259"/>
<feGaussianBlur stdDeviation="9.2037"/>
<feComposite in2="hardAlpha" operator="out"/>
<feColorMatrix type="matrix" values="0 0 0 0 0 0 0 0 0 0 0 0 0 0 0 0 0 0 0.25 0"/>
<feBlend mode="normal" in2="BackgroundImageFix" result="effect1_dropShadow_270_2844"/>
<feBlend mode="normal" in="SourceGraphic" in2="effect1_dropShadow_270_2844" result="shape"/>
</filter>
<filter id="filter15_f_270_2844" x="-809.49" y="1548.26" width="1474.36" height="1051.39" filterUnits="userSpaceOnUse" color-interpolation-filters="sRGB">
<feFlood flood-opacity="0" result="BackgroundImageFix"/>
<feBlend mode="normal" in="SourceGraphic" in2="BackgroundImageFix" result="shape"/>
<feGaussianBlur stdDeviation="70.4023" result="effect1_foregroundBlur_270_2844"/>
</filter>
<filter id="filter16_f_270_2844" x="-809.49" y="1548.26" width="1474.36" height="1051.39" filterUnits="userSpaceOnUse" color-interpolation-filters="sRGB">
<feFlood flood-opacity="0" result="BackgroundImageFix"/>
<feBlend mode="normal" in="SourceGraphic" in2="BackgroundImageFix" result="shape"/>
<feGaussianBlur stdDeviation="70.4023" result="effect1_foregroundBlur_270_2844"/>
</filter>
<filter id="filter17_f_270_2844" x="-622.519" y="1408.82" width="1339.56" height="1338.87" filterUnits="userSpaceOnUse" color-interpolation-filters="sRGB">
<feFlood flood-opacity="0" result="BackgroundImageFix"/>
<feBlend mode="normal" in="SourceGraphic" in2="BackgroundImageFix" result="shape"/>
<feGaussianBlur stdDeviation="70.4023" result="effect1_foregroundBlur_270_2844"/>
</filter>
<filter id="filter18_f_270_2844" x="-622.519" y="1408.82" width="1339.56" height="1338.87" filterUnits="userSpaceOnUse" color-interpolation-filters="sRGB">
<feFlood flood-opacity="0" result="BackgroundImageFix"/>
<feBlend mode="normal" in="SourceGraphic" in2="BackgroundImageFix" result="shape"/>
<feGaussianBlur stdDeviation="70.4023" result="effect1_foregroundBlur_270_2844"/>
</filter>
<filter id="filter19_f_270_2844" x="-883.444" y="1323.46" width="1339.56" height="1338.87" filterUnits="userSpaceOnUse" color-interpolation-filters="sRGB">
<feFlood flood-opacity="0" result="BackgroundImageFix"/>
<feBlend mode="normal" in="SourceGraphic" in2="BackgroundImageFix" result="shape"/>
<feGaussianBlur stdDeviation="70.4023" result="effect1_foregroundBlur_270_2844"/>
</filter>
<filter id="filter20_f_270_2844" x="-883.444" y="1323.46" width="1339.56" height="1338.87" filterUnits="userSpaceOnUse" color-interpolation-filters="sRGB">
<feFlood flood-opacity="0" result="BackgroundImageFix"/>
<feBlend mode="normal" in="SourceGraphic" in2="BackgroundImageFix" result="shape"/>
<feGaussianBlur stdDeviation="70.4023" result="effect1_foregroundBlur_270_2844"/>
</filter>
<filter id="filter21_f_270_2844" x="-752.931" y="1666.92" width="1474.36" height="1051.39" filterUnits="userSpaceOnUse" color-interpolation-filters="sRGB">
<feFlood flood-opacity="0" result="BackgroundImageFix"/>
<feBlend mode="normal" in="SourceGraphic" in2="BackgroundImageFix" result="shape"/>
<feGaussianBlur stdDeviation="70.4023" result="effect1_foregroundBlur_270_2844"/>
</filter>
<filter id="filter22_f_270_2844" x="-752.931" y="1666.92" width="1474.36" height="1051.39" filterUnits="userSpaceOnUse" color-interpolation-filters="sRGB">
<feFlood flood-opacity="0" result="BackgroundImageFix"/>
<feBlend mode="normal" in="SourceGraphic" in2="BackgroundImageFix" result="shape"/>
<feGaussianBlur stdDeviation="70.4023" result="effect1_foregroundBlur_270_2844"/>
</filter>
<filter id="filter23_d_270_2844" x="158.848" y="2198.56" width="1563.3" height="901.906" filterUnits="userSpaceOnUse" color-interpolation-filters="sRGB">
<feFlood flood-opacity="0" result="BackgroundImageFix"/>
<feColorMatrix in="SourceAlpha" type="matrix" values="0 0 0 0 0 0 0 0 0 0 0 0 0 0 0 0 0 0 127 0" result="hardAlpha"/>
<feMorphology radius="9.49375" operator="erode" in="SourceAlpha" result="effect1_dropShadow_270_2844"/>
<feOffset dy="25.3167"/>
<feGaussianBlur stdDeviation="15.8229"/>
<feComposite in2="hardAlpha" operator="out"/>
<feColorMatrix type="matrix" values="0 0 0 0 0 0 0 0 0 0 0 0 0 0 0 0 0 0 0.25 0"/>
<feBlend mode="normal" in2="BackgroundImageFix" result="effect1_dropShadow_270_2844"/>
<feBlend mode="normal" in="SourceGraphic" in2="effect1_dropShadow_270_2844" result="shape"/>
</filter>
<filter id="filter24_f_270_2844" x="224.86" y="1773.61" width="2302.96" height="2301.78" filterUnits="userSpaceOnUse" color-interpolation-filters="sRGB">
<feFlood flood-opacity="0" result="BackgroundImageFix"/>
<feBlend mode="normal" in="SourceGraphic" in2="BackgroundImageFix" result="shape"/>
<feGaussianBlur stdDeviation="121.035" result="effect1_foregroundBlur_270_2844"/>
</filter>
<filter id="filter25_f_270_2844" x="224.86" y="1773.61" width="2302.96" height="2301.78" filterUnits="userSpaceOnUse" color-interpolation-filters="sRGB">
<feFlood flood-opacity="0" result="BackgroundImageFix"/>
<feBlend mode="normal" in="SourceGraphic" in2="BackgroundImageFix" result="shape"/>
<feGaussianBlur stdDeviation="121.035" result="effect1_foregroundBlur_270_2844"/>
</filter>
<filter id="filter26_f_270_2844" x="673.439" y="1626.86" width="2302.96" height="2301.78" filterUnits="userSpaceOnUse" color-interpolation-filters="sRGB">
<feFlood flood-opacity="0" result="BackgroundImageFix"/>
<feBlend mode="normal" in="SourceGraphic" in2="BackgroundImageFix" result="shape"/>
<feGaussianBlur stdDeviation="121.035" result="effect1_foregroundBlur_270_2844"/>
</filter>
<filter id="filter27_f_270_2844" x="673.439" y="1626.86" width="2302.96" height="2301.78" filterUnits="userSpaceOnUse" color-interpolation-filters="sRGB">
<feFlood flood-opacity="0" result="BackgroundImageFix"/>
<feBlend mode="normal" in="SourceGraphic" in2="BackgroundImageFix" result="shape"/>
<feGaussianBlur stdDeviation="121.035" result="effect1_foregroundBlur_270_2844"/>
</filter>
<filter id="filter28_f_270_2844" x="217.323" y="2217.34" width="2534.7" height="1807.54" filterUnits="userSpaceOnUse" color-interpolation-filters="sRGB">
<feFlood flood-opacity="0" result="BackgroundImageFix"/>
<feBlend mode="normal" in="SourceGraphic" in2="BackgroundImageFix" result="shape"/>
<feGaussianBlur stdDeviation="121.035" result="effect1_foregroundBlur_270_2844"/>
</filter>
<filter id="filter29_f_270_2844" x="217.323" y="2217.34" width="2534.7" height="1807.54" filterUnits="userSpaceOnUse" color-interpolation-filters="sRGB">
<feFlood flood-opacity="0" result="BackgroundImageFix"/>
<feBlend mode="normal" in="SourceGraphic" in2="BackgroundImageFix" result="shape"/>
<feGaussianBlur stdDeviation="121.035" result="effect1_foregroundBlur_270_2844"/>
</filter>
<linearGradient id="paint0_linear_270_2844" x1="1627.38" y1="1386.55" x2="1673.12" y2="545.524" gradientUnits="userSpaceOnUse">
<stop stop-color="#00E1FF"/>
<stop offset="0.711538" stop-color="#4494FC" stop-opacity="0.12"/>
</linearGradient>
<linearGradient id="paint1_linear_270_2844" x1="1627.38" y1="1386.55" x2="1673.12" y2="545.524" gradientUnits="userSpaceOnUse">
<stop stop-color="#00E1FF"/>
<stop offset="0.711538" stop-color="#4494FC" stop-opacity="0.12"/>
</linearGradient>
<linearGradient id="paint2_linear_270_2844" x1="-23.6496" y1="636.053" x2="21.6239" y2="1472.79" gradientUnits="userSpaceOnUse">
<stop stop-color="#2543F2"/>
<stop offset="1" stop-opacity="0"/>
</linearGradient>
<linearGradient id="paint3_linear_270_2844" x1="-23.6496" y1="636.053" x2="21.6239" y2="1472.79" gradientUnits="userSpaceOnUse">
<stop stop-color="#2543F2"/>
<stop offset="1" stop-opacity="0"/>
</linearGradient>
<linearGradient id="paint4_linear_270_2844" x1="722" y1="0" x2="722" y2="168" gradientUnits="userSpaceOnUse">
<stop stop-color="#0B0B0B" stop-opacity="0"/>
<stop offset="1" stop-color="#0B0B0B"/>
</linearGradient>
<linearGradient id="paint5_linear_270_2844" x1="722" y1="1482" x2="722" y2="1650" gradientUnits="userSpaceOnUse">
<stop stop-color="#0B0B0B" stop-opacity="0"/>
<stop offset="1" stop-color="#0B0B0B"/>
</linearGradient>
<linearGradient id="paint6_linear_270_2844" x1="1413.13" y1="462.797" x2="1820.27" y2="181.84" gradientUnits="userSpaceOnUse">
<stop stop-color="#00E1FF"/>
<stop offset="1" stop-opacity="0"/>
</linearGradient>
<linearGradient id="paint7_linear_270_2844" x1="1413.13" y1="462.797" x2="1820.27" y2="181.84" gradientUnits="userSpaceOnUse">
<stop stop-color="#00E1FF"/>
<stop offset="1" stop-opacity="0"/>
</linearGradient>
<linearGradient id="paint8_linear_270_2844" x1="1532.29" y1="296.489" x2="1170.44" y2="625.032" gradientUnits="userSpaceOnUse">
<stop stop-color="#2543F2"/>
<stop offset="1" stop-opacity="0"/>
</linearGradient>
<linearGradient id="paint9_linear_270_2844" x1="1532.29" y1="296.489" x2="1170.44" y2="625.032" gradientUnits="userSpaceOnUse">
<stop stop-color="#2543F2"/>
<stop offset="1" stop-opacity="0"/>
</linearGradient>
<linearGradient id="paint10_linear_270_2844" x1="1793.22" y1="211.125" x2="1431.37" y2="539.668" gradientUnits="userSpaceOnUse">
<stop stop-color="#2543F2"/>
<stop offset="1" stop-opacity="0"/>
</linearGradient>
<linearGradient id="paint11_linear_270_2844" x1="1793.22" y1="211.125" x2="1431.37" y2="539.668" gradientUnits="userSpaceOnUse">
<stop stop-color="#2543F2"/>
<stop offset="1" stop-opacity="0"/>
</linearGradient>
<linearGradient id="paint12_linear_270_2844" x1="1356.57" y1="581.463" x2="1763.71" y2="300.506" gradientUnits="userSpaceOnUse">
<stop stop-color="#2543F2"/>
<stop offset="1" stop-opacity="0"/>
</linearGradient>
<linearGradient id="paint13_linear_270_2844" x1="1356.57" y1="581.463" x2="1763.71" y2="300.506" gradientUnits="userSpaceOnUse">
<stop stop-color="#2543F2"/>
<stop offset="1" stop-opacity="0"/>
</linearGradient>
<linearGradient id="paint14_linear_270_2844" x1="1092" y1="329" x2="1092" y2="497" gradientUnits="userSpaceOnUse">
<stop stop-color="#0B0B0B" stop-opacity="0"/>
<stop offset="1" stop-color="#0B0B0B"/>
</linearGradient>
<linearGradient id="paint15_linear_270_2844" x1="349" y1="0" x2="349" y2="168" gradientUnits="userSpaceOnUse">
<stop stop-color="#0B0B0B" stop-opacity="0"/>
<stop offset="1" stop-color="#0B0B0B"/>
</linearGradient>
<linearGradient id="paint16_linear_270_2844" x1="72.5405" y1="2118.8" x2="-334.599" y2="1837.84" gradientUnits="userSpaceOnUse">
<stop stop-color="#00E1FF"/>
<stop offset="1" stop-opacity="0"/>
</linearGradient>
<linearGradient id="paint17_linear_270_2844" x1="72.5405" y1="2118.8" x2="-334.599" y2="1837.84" gradientUnits="userSpaceOnUse">
<stop stop-color="#00E1FF"/>
<stop offset="1" stop-opacity="0"/>
</linearGradient>
<linearGradient id="paint18_linear_270_2844" x1="-46.628" y1="1952.49" x2="315.224" y2="2281.03" gradientUnits="userSpaceOnUse">
<stop stop-color="#2543F2"/>
<stop offset="1" stop-opacity="0"/>
</linearGradient>
<linearGradient id="paint19_linear_270_2844" x1="-46.628" y1="1952.49" x2="315.224" y2="2281.03" gradientUnits="userSpaceOnUse">
<stop stop-color="#2543F2"/>
<stop offset="1" stop-opacity="0"/>
</linearGradient>
<linearGradient id="paint20_linear_270_2844" x1="-307.552" y1="1867.13" x2="54.2995" y2="2195.67" gradientUnits="userSpaceOnUse">
<stop stop-color="#2543F2"/>
<stop offset="1" stop-opacity="0"/>
</linearGradient>
<linearGradient id="paint21_linear_270_2844" x1="-307.552" y1="1867.13" x2="54.2995" y2="2195.67" gradientUnits="userSpaceOnUse">
<stop stop-color="#2543F2"/>
<stop offset="1" stop-opacity="0"/>
</linearGradient>
<linearGradient id="paint22_linear_270_2844" x1="129.099" y1="2237.46" x2="-278.04" y2="1956.51" gradientUnits="userSpaceOnUse">
<stop stop-color="#2543F2"/>
<stop offset="1" stop-opacity="0"/>
</linearGradient>
<linearGradient id="paint23_linear_270_2844" x1="129.099" y1="2237.46" x2="-278.04" y2="1956.51" gradientUnits="userSpaceOnUse">
<stop stop-color="#2543F2"/>
<stop offset="1" stop-opacity="0"/>
</linearGradient>
<linearGradient id="paint24_linear_270_2844" x1="391" y1="0" x2="391" y2="95" gradientUnits="userSpaceOnUse">
<stop stop-color="#0B0B0B" stop-opacity="0"/>
<stop offset="1" stop-color="#0B0B0B"/>
</linearGradient>
<linearGradient id="paint25_linear_270_2844" x1="1134" y1="1751" x2="1134" y2="1846" gradientUnits="userSpaceOnUse">
<stop stop-color="#0B0B0B" stop-opacity="0"/>
<stop offset="1" stop-color="#0B0B0B"/>
</linearGradient>
<linearGradient id="paint26_linear_270_2844" x1="1537.76" y1="2708.28" x2="915.664" y2="3273.11" gradientUnits="userSpaceOnUse">
<stop stop-color="#2543F2"/>
<stop offset="1" stop-opacity="0"/>
</linearGradient>
<linearGradient id="paint27_linear_270_2844" x1="1537.76" y1="2708.28" x2="915.664" y2="3273.11" gradientUnits="userSpaceOnUse">
<stop stop-color="#2543F2"/>
<stop offset="1" stop-opacity="0"/>
</linearGradient>
<linearGradient id="paint28_linear_270_2844" x1="1986.33" y1="2561.53" x2="1364.24" y2="3126.35" gradientUnits="userSpaceOnUse">
<stop stop-color="#2543F2"/>
<stop offset="1" stop-opacity="0"/>
</linearGradient>
<linearGradient id="paint29_linear_270_2844" x1="1986.33" y1="2561.53" x2="1364.24" y2="3126.35" gradientUnits="userSpaceOnUse">
<stop stop-color="#2543F2"/>
<stop offset="1" stop-opacity="0"/>
</linearGradient>
<linearGradient id="paint30_linear_270_2844" x1="1235.65" y1="3198.21" x2="1935.6" y2="2715.19" gradientUnits="userSpaceOnUse">
<stop stop-color="#2543F2"/>
<stop offset="1" stop-opacity="0"/>
</linearGradient>
<linearGradient id="paint31_linear_270_2844" x1="1235.65" y1="3198.21" x2="1935.6" y2="2715.19" gradientUnits="userSpaceOnUse">
<stop stop-color="#2543F2"/>
<stop offset="1" stop-opacity="0"/>
</linearGradient>
<linearGradient id="paint32_linear_270_2844" x1="2183.5" y1="2398" x2="2183.5" y2="2597" gradientUnits="userSpaceOnUse">
<stop stop-color="#0B0B0B" stop-opacity="0"/>
<stop offset="1" stop-color="#0B0B0B"/>
</linearGradient>
<clipPath id="clip0_270_2844">
<rect x="-240" y="1650" width="1165" height="2058" rx="120" transform="rotate(-90 -240 1650)" fill="white"/>
</clipPath>
<clipPath id="clip1_270_2844">
<rect x="743.111" y="497" width="497" height="883.555" rx="55.2222" transform="rotate(-90 743.111 497)" fill="white"/>
</clipPath>
<clipPath id="clip2_270_2844">
<rect width="497" height="883.555" rx="55.2222" transform="matrix(4.37114e-08 -1 -1 -4.37114e-08 742.555 2153)" fill="white"/>
</clipPath>
<clipPath id="clip3_270_2844">
<rect x="181" y="3053" width="854.438" height="1519" transform="rotate(-90 181 3053)" fill="white"/>
</clipPath>
</defs>
</svg>
