<svg width="22" height="26" viewBox="0 0 22 26" fill="none" xmlns="http://www.w3.org/2000/svg">
<path d="M18.0874 2.60791V15.4639H19.3914V5.21648H22V2.60791H18.0874Z" fill="#1F37E1"/>
<path d="M2.60858 0H0V2.60857H2.60858V0Z" fill="#1F37E1"/>
<path d="M2.60828 25.583H11.0001V22.9744H3.91277V2.60791L2.60858 2.60857L2.60828 25.583Z" fill="#1F37E1"/>
<path d="M18.0873 1.7739e-05H3.91265L3.91277 2.60791H18.0874L18.0873 1.7739e-05Z" fill="#1F37E1"/>
<path d="M18.7971 18.0723H18.2237V16.9253H13.6357V18.0723H13.0624V20.3754H11.9153V25.5825H19.9442V20.3754H18.7971V18.0723ZM15.3562 24.4358V21.5225H16.5033V24.4358H15.3562ZM14.2091 20.3758V18.0728H17.65V20.3758H14.2091Z" fill="#1F37E1"/>
<path d="M16.9853 5.2166H5.22017V6.3637H16.9853V5.2166Z" fill="#1F37E1"/>
<path d="M16.9853 7.76522H5.22017V8.91231H16.9853V7.76522Z" fill="#1F37E1"/>
<path d="M16.9853 10.3131H5.22017V11.4601H16.9853V10.3131Z" fill="#1F37E1"/>
<path d="M16.9853 12.9494H5.22017V14.0965H16.9853V12.9494Z" fill="#1F37E1"/>
</svg>
