<svg width="34" height="34" viewBox="0 0 34 34" fill="none" xmlns="http://www.w3.org/2000/svg">
<g clip-path="url(#clip0_229_34)">
<path d="M-1.62822 36.7701L-2.33532 37.4772L-1.62822 38.1843L-2.33532 38.8915L-1.62822 39.5986L-3.04243 41.0128L-1.62822 42.427L-3.04243 43.8412L-1.62822 45.2554L-3.53685 47.1641L-4.73838 45.9625L-4.03128 45.2554L-5.44549 43.8412L-4.03128 42.427L-5.65817 40.8001L-14.1435 49.2854L-15.345 48.0838L-6.8597 39.5986L-8.4866 37.9717L-9.90081 39.3859L-11.315 37.9717L-12.0221 38.6788L-13.2237 37.4772L-11.315 35.5686L-9.90081 36.9828L-8.4866 35.5686L-7.07239 36.9828L-5.65817 35.5686L-4.95107 36.2757L-4.24396 35.5686L-3.53685 36.2757L-2.82975 35.5686L-1.62822 36.7701Z" fill="#F9F9F9" stroke="#0B0B0B" stroke-width="0.3"/>
<path d="M23.1219 12.0201L22.4148 12.7272L23.1219 13.4343L22.4148 14.1415L23.1219 14.8486L21.7077 16.2628L23.1219 17.677L21.7077 19.0912L23.1219 20.5054L21.2133 22.4141L20.0117 21.2125L20.7188 20.5054L19.3046 19.0912L20.7188 17.677L19.0919 16.0501L10.6067 24.5354L9.40514 23.3338L17.8904 14.8486L16.2635 13.2217L14.8493 14.6359L13.4351 13.2217L12.728 13.9288L11.5265 12.7272L13.4351 10.8186L14.8493 12.2328L16.2635 10.8186L17.6777 12.2328L19.0919 10.8186L19.7991 11.5257L20.5062 10.8186L21.2133 11.5257L21.9204 10.8186L23.1219 12.0201Z" fill="#F9F9F9" stroke="#0B0B0B" stroke-width="0.3"/>
</g>
<defs>
<clipPath id="clip0_229_34">
<rect width="24" height="24" fill="white" transform="translate(16.9706) rotate(45)"/>
</clipPath>
</defs>
</svg>
