<svg width="1440" height="494" viewBox="0 0 1440 494" fill="none" xmlns="http://www.w3.org/2000/svg">
<g clip-path="url(#clip0_274_1444)">
<g clip-path="url(#clip1_274_1444)">
<g filter="url(#filter0_f_274_1444)">
<path d="M714.311 549.868C1397.09 926.91 1577.27 -154.176 1582.01 -741.85C1788.27 -511.047 2251.99 153.043 2456.82 962.985C2712.87 1975.41 1212.17 1655.39 45.7546 1527.38C-887.379 1424.98 -817.204 -28.1078 -665.474 -741.85C-490.038 -468.378 31.5309 172.826 714.311 549.868Z" fill="url(#paint0_linear_274_1444)"/>
</g>
<g filter="url(#filter1_f_274_1444)">
<path d="M210.099 762.27C850.8 1079 1479.7 635.808 1883.75 446.997C1731.58 750.385 1422.43 1360.98 1403.21 1376.24C1379.2 1395.31 518.908 1707.4 489.718 1699.12C466.365 1692.5 -127.945 1243.69 -422.181 1020.11C-591.509 753.943 -430.601 445.544 210.099 762.27Z" fill="url(#paint1_linear_274_1444)"/>
</g>
</g>
</g>
<g opacity="0.8" clip-path="url(#clip2_274_1444)">
<mask id="mask0_274_1444" style="mask-type:alpha" maskUnits="userSpaceOnUse" x="-299" y="-65" width="797" height="797">
<rect width="796.895" height="796.895" transform="translate(-298.929 -65)" fill="url(#paint2_radial_274_1444)"/>
</mask>
<g mask="url(#mask0_274_1444)">
<g clip-path="url(#clip3_274_1444)">
<g opacity="0.5">
<g clip-path="url(#clip4_274_1444)">
<line x1="0.218148" y1="-65" x2="0.218148" y2="731.895" stroke="white" stroke-opacity="0.4" stroke-width="0.622574"/>
<line x1="50.0242" y1="-65" x2="50.0242" y2="731.895" stroke="white" stroke-opacity="0.4" stroke-width="0.622574"/>
<line x1="99.83" y1="-65" x2="99.83" y2="731.895" stroke="white" stroke-opacity="0.4" stroke-width="0.622574"/>
<line x1="149.636" y1="-65" x2="149.636" y2="731.895" stroke="white" stroke-opacity="0.4" stroke-width="0.622574"/>
<line x1="199.442" y1="-65" x2="199.442" y2="731.895" stroke="white" stroke-opacity="0.4" stroke-width="0.622574"/>
<line x1="249.248" y1="-65" x2="249.248" y2="731.895" stroke="white" stroke-opacity="0.4" stroke-width="0.622574"/>
<line x1="299.054" y1="-65" x2="299.054" y2="731.895" stroke="white" stroke-opacity="0.4" stroke-width="0.622574"/>
<line x1="348.86" y1="-65" x2="348.86" y2="731.895" stroke="white" stroke-opacity="0.4" stroke-width="0.622574"/>
<line x1="398.666" y1="-65" x2="398.666" y2="731.895" stroke="white" stroke-opacity="0.4" stroke-width="0.622574"/>
<line x1="448.472" y1="-65" x2="448.472" y2="731.895" stroke="white" stroke-opacity="0.4" stroke-width="0.622574"/>
</g>
<rect x="-298.41" y="-64.4812" width="795.857" height="795.857" stroke="#1F242F" stroke-width="1.03762"/>
</g>
<g opacity="0.5">
<g clip-path="url(#clip5_274_1444)">
<line x1="-298.929" y1="34.3005" x2="497.966" y2="34.3005" stroke="white" stroke-opacity="0.4" stroke-width="0.622574"/>
<line x1="-298.929" y1="84.1067" x2="497.966" y2="84.1067" stroke="white" stroke-opacity="0.4" stroke-width="0.622574"/>
<line x1="-298.929" y1="133.912" x2="497.966" y2="133.912" stroke="white" stroke-opacity="0.4" stroke-width="0.622574"/>
<line x1="-298.929" y1="183.718" x2="497.966" y2="183.718" stroke="white" stroke-opacity="0.4" stroke-width="0.622574"/>
<line x1="-298.929" y1="233.524" x2="497.966" y2="233.524" stroke="white" stroke-opacity="0.4" stroke-width="0.622574"/>
<line x1="-298.929" y1="283.33" x2="497.966" y2="283.33" stroke="white" stroke-opacity="0.4" stroke-width="0.622574"/>
<line x1="-298.929" y1="333.136" x2="497.966" y2="333.136" stroke="white" stroke-opacity="0.4" stroke-width="0.622574"/>
<line x1="-298.929" y1="382.942" x2="497.966" y2="382.942" stroke="white" stroke-opacity="0.4" stroke-width="0.622574"/>
<line x1="-298.929" y1="432.748" x2="497.966" y2="432.748" stroke="white" stroke-opacity="0.4" stroke-width="0.622574"/>
<line x1="-298.929" y1="482.554" x2="497.966" y2="482.554" stroke="white" stroke-opacity="0.4" stroke-width="0.622574"/>
</g>
<rect x="-298.41" y="-64.4812" width="795.857" height="795.857" stroke="#1F242F" stroke-width="1.03762"/>
</g>
</g>
<path d="M99.5188 221.384L99.5188 246.287" stroke="url(#paint3_linear_274_1444)" stroke-width="1.03762"/>
<path d="M111.97 233.835L87.0672 233.835" stroke="url(#paint4_linear_274_1444)" stroke-width="1.03762"/>
<path d="M349.586 472.489L349.586 491.166" stroke="url(#paint5_linear_274_1444)" stroke-width="1.03762"/>
<path d="M358.924 481.827L340.247 481.827" stroke="url(#paint6_linear_274_1444)" stroke-width="1.03762"/>
<path d="M298.742 325.146L298.742 341.748" stroke="url(#paint7_linear_274_1444)" stroke-width="1.03762"/>
<path d="M307.044 333.447L290.442 333.447" stroke="url(#paint8_linear_274_1444)" stroke-width="1.03762"/>
<path d="M299.781 171.578L299.781 196.481" stroke="url(#paint9_linear_274_1444)" stroke-width="1.03762"/>
<path d="M312.232 184.03L287.329 184.03" stroke="url(#paint10_linear_274_1444)" stroke-width="1.03762"/>
<path d="M199.131 270.152L199.131 295.055" stroke="url(#paint11_linear_274_1444)" stroke-width="1.03762"/>
<path d="M211.582 282.604L186.679 282.604" stroke="url(#paint12_linear_274_1444)" stroke-width="1.03762"/>
<circle cx="-0.0930266" cy="283.642" r="2.07525" fill="white" fill-opacity="0.4"/>
<circle cx="199.131" cy="184.03" r="2.07525" fill="white" fill-opacity="0.4"/>
<circle cx="249.974" cy="383.253" r="2.07525" fill="white" fill-opacity="0.4"/>
<rect x="49.7129" y="383.253" width="49.8059" height="49.8059" fill="white" fill-opacity="0.15"/>
<rect x="49.7129" y="84.418" width="49.8059" height="49.8059" fill="white" fill-opacity="0.15"/>
<rect x="349.586" y="383.253" width="50.8436" height="49.8059" fill="white" fill-opacity="0.15"/>
</g>
</g>
<defs>
<filter id="filter0_f_274_1444" x="-1055.93" y="-1041.85" width="3841.61" height="3019.87" filterUnits="userSpaceOnUse" color-interpolation-filters="sRGB">
<feFlood flood-opacity="0" result="BackgroundImageFix"/>
<feBlend mode="normal" in="SourceGraphic" in2="BackgroundImageFix" result="shape"/>
<feGaussianBlur stdDeviation="150" result="effect1_foregroundBlur_274_1444"/>
</filter>
<filter id="filter1_f_274_1444" x="-784.975" y="146.997" width="2968.73" height="1852.29" filterUnits="userSpaceOnUse" color-interpolation-filters="sRGB">
<feFlood flood-opacity="0" result="BackgroundImageFix"/>
<feBlend mode="normal" in="SourceGraphic" in2="BackgroundImageFix" result="shape"/>
<feGaussianBlur stdDeviation="150" result="effect1_foregroundBlur_274_1444"/>
</filter>
<linearGradient id="paint0_linear_274_1444" x1="1269.07" y1="468.085" x2="52.8675" y2="468.085" gradientUnits="userSpaceOnUse">
<stop stop-color="#058DB6"/>
<stop offset="1" stop-color="#1437E8"/>
</linearGradient>
<linearGradient id="paint1_linear_274_1444" x1="1257.93" y1="864.221" x2="60.212" y2="621.314" gradientUnits="userSpaceOnUse">
<stop stop-color="#043045"/>
<stop offset="0.682692" stop-color="#0CBDC6"/>
</linearGradient>
<radialGradient id="paint2_radial_274_1444" cx="0" cy="0" r="1" gradientUnits="userSpaceOnUse" gradientTransform="translate(398.447 398.448) rotate(90) scale(398.448 398.448)">
<stop/>
<stop offset="1" stop-opacity="0"/>
</radialGradient>
<linearGradient id="paint3_linear_274_1444" x1="99.5188" y1="246.287" x2="99.5188" y2="221.384" gradientUnits="userSpaceOnUse">
<stop stop-color="white" stop-opacity="0"/>
<stop offset="0.50284" stop-color="white"/>
<stop offset="1" stop-color="white" stop-opacity="0"/>
</linearGradient>
<linearGradient id="paint4_linear_274_1444" x1="87.0672" y1="233.835" x2="111.97" y2="233.835" gradientUnits="userSpaceOnUse">
<stop stop-color="white" stop-opacity="0"/>
<stop offset="0.50284" stop-color="white"/>
<stop offset="1" stop-color="white" stop-opacity="0"/>
</linearGradient>
<linearGradient id="paint5_linear_274_1444" x1="349.586" y1="491.166" x2="349.586" y2="472.489" gradientUnits="userSpaceOnUse">
<stop stop-color="white" stop-opacity="0"/>
<stop offset="0.50284" stop-color="white"/>
<stop offset="1" stop-color="white" stop-opacity="0"/>
</linearGradient>
<linearGradient id="paint6_linear_274_1444" x1="340.247" y1="481.827" x2="358.924" y2="481.827" gradientUnits="userSpaceOnUse">
<stop stop-color="white" stop-opacity="0"/>
<stop offset="0.50284" stop-color="white"/>
<stop offset="1" stop-color="white" stop-opacity="0"/>
</linearGradient>
<linearGradient id="paint7_linear_274_1444" x1="298.742" y1="341.748" x2="298.743" y2="325.146" gradientUnits="userSpaceOnUse">
<stop stop-color="white" stop-opacity="0"/>
<stop offset="0.50284" stop-color="white"/>
<stop offset="1" stop-color="white" stop-opacity="0"/>
</linearGradient>
<linearGradient id="paint8_linear_274_1444" x1="290.442" y1="333.447" x2="307.044" y2="333.447" gradientUnits="userSpaceOnUse">
<stop stop-color="white" stop-opacity="0"/>
<stop offset="0.50284" stop-color="white"/>
<stop offset="1" stop-color="white" stop-opacity="0"/>
</linearGradient>
<linearGradient id="paint9_linear_274_1444" x1="299.781" y1="196.481" x2="299.781" y2="171.578" gradientUnits="userSpaceOnUse">
<stop stop-color="white" stop-opacity="0"/>
<stop offset="0.50284" stop-color="white"/>
<stop offset="1" stop-color="white" stop-opacity="0"/>
</linearGradient>
<linearGradient id="paint10_linear_274_1444" x1="287.329" y1="184.03" x2="312.232" y2="184.03" gradientUnits="userSpaceOnUse">
<stop stop-color="white" stop-opacity="0"/>
<stop offset="0.50284" stop-color="white"/>
<stop offset="1" stop-color="white" stop-opacity="0"/>
</linearGradient>
<linearGradient id="paint11_linear_274_1444" x1="199.131" y1="295.055" x2="199.131" y2="270.152" gradientUnits="userSpaceOnUse">
<stop stop-color="white" stop-opacity="0"/>
<stop offset="0.50284" stop-color="white"/>
<stop offset="1" stop-color="white" stop-opacity="0"/>
</linearGradient>
<linearGradient id="paint12_linear_274_1444" x1="186.679" y1="282.604" x2="211.582" y2="282.604" gradientUnits="userSpaceOnUse">
<stop stop-color="white" stop-opacity="0"/>
<stop offset="0.50284" stop-color="white"/>
<stop offset="1" stop-color="white" stop-opacity="0"/>
</linearGradient>
<clipPath id="clip0_274_1444">
<path d="M0 0H1440V463C1440 474.046 1431.05 483 1420 483H20C8.95431 483 0 474.046 0 463V0Z" fill="white"/>
</clipPath>
<clipPath id="clip1_274_1444">
<rect width="1642" height="1920" fill="white" transform="translate(-101 -767)"/>
</clipPath>
<clipPath id="clip2_274_1444">
<rect width="692" height="483" fill="white"/>
</clipPath>
<clipPath id="clip3_274_1444">
<rect width="796.895" height="796.895" fill="white" transform="translate(-298.929 -65)"/>
</clipPath>
<clipPath id="clip4_274_1444">
<rect x="-298.929" y="-65" width="796.895" height="796.895" fill="white"/>
</clipPath>
<clipPath id="clip5_274_1444">
<rect x="-298.929" y="-65" width="796.895" height="796.895" fill="white"/>
</clipPath>
</defs>
</svg>
