<svg width="1859" height="847" viewBox="0 0 1859 847" fill="none" xmlns="http://www.w3.org/2000/svg">
<g opacity="0.4" filter="url(#filter0_d_258_6)">
<g clip-path="url(#clip0_258_6)">
<g filter="url(#filter1_f_258_6)">
<path d="M936.34 682.259C1522.56 1015.35 1677.25 60.2779 1681.32 -458.896C1858.41 -254.996 2256.55 331.688 2432.41 1047.22C2652.24 1941.64 1363.79 1658.92 362.336 1545.84C-438.827 1455.37 -378.576 171.652 -248.306 -458.896C-97.6805 -217.3 350.124 349.165 936.34 682.259Z" fill="url(#paint0_linear_258_6)"/>
</g>
<g filter="url(#filter2_f_258_6)">
<path d="M454.929 657.979C1099.26 1054.99 1730.79 501.189 2136.66 265.406C1984.09 644.833 1674.12 1408.46 1654.83 1427.53C1630.72 1451.37 766.455 1840.88 737.107 1830.49C713.628 1822.17 115.763 1259.94 -180.235 979.867C-350.744 646.651 -189.4 260.965 454.929 657.979Z" fill="url(#paint1_linear_258_6)"/>
</g>
</g>
</g>
<defs>
<filter id="filter0_d_258_6" x="-5.72205e-06" y="0" width="1858.67" height="846.438" filterUnits="userSpaceOnUse" color-interpolation-filters="sRGB">
<feFlood flood-opacity="0" result="BackgroundImageFix"/>
<feColorMatrix in="SourceAlpha" type="matrix" values="0 0 0 0 0 0 0 0 0 0 0 0 0 0 0 0 0 0 127 0" result="hardAlpha"/>
<feMorphology radius="11.2875" operator="erode" in="SourceAlpha" result="effect1_dropShadow_258_6"/>
<feOffset dy="30.1"/>
<feGaussianBlur stdDeviation="18.8125"/>
<feComposite in2="hardAlpha" operator="out"/>
<feColorMatrix type="matrix" values="0 0 0 0 0 0 0 0 0 0 0 0 0 0 0 0 0 0 0.25 0"/>
<feBlend mode="normal" in2="BackgroundImageFix" result="effect1_dropShadow_258_6"/>
<feBlend mode="normal" in="SourceGraphic" in2="effect1_dropShadow_258_6" result="shape"/>
</filter>
<filter id="filter1_f_258_6" x="-608.155" y="-741.084" width="3347.53" height="2702.19" filterUnits="userSpaceOnUse" color-interpolation-filters="sRGB">
<feFlood flood-opacity="0" result="BackgroundImageFix"/>
<feBlend mode="normal" in="SourceGraphic" in2="BackgroundImageFix" result="shape"/>
<feGaussianBlur stdDeviation="141.094" result="effect1_foregroundBlur_258_6"/>
</filter>
<filter id="filter2_f_258_6" x="-525.768" y="-16.7812" width="2944.62" height="2129.66" filterUnits="userSpaceOnUse" color-interpolation-filters="sRGB">
<feFlood flood-opacity="0" result="BackgroundImageFix"/>
<feBlend mode="normal" in="SourceGraphic" in2="BackgroundImageFix" result="shape"/>
<feGaussianBlur stdDeviation="141.094" result="effect1_foregroundBlur_258_6"/>
</filter>
<linearGradient id="paint0_linear_258_6" x1="1412.64" y1="610.009" x2="368.443" y2="610.009" gradientUnits="userSpaceOnUse">
<stop stop-color="#00E1FF"/>
<stop offset="1" stop-color="#2B72C8"/>
</linearGradient>
<linearGradient id="paint1_linear_258_6" x1="1508.18" y1="786.728" x2="286.708" y2="588.892" gradientUnits="userSpaceOnUse">
<stop stop-color="#3873EE"/>
<stop offset="0.682692" stop-color="#184DBB"/>
</linearGradient>
<clipPath id="clip0_258_6">
<path d="M26.3375 0H1832.34V790H26.3375V0Z" fill="white"/>
</clipPath>
</defs>
</svg>
